<?xml version="1.0" encoding="utf-8"?>
<svg id="master-artboard" viewBox="0 0 1400 980" version="1.1" xmlns="http://www.w3.org/2000/svg" x="0px" y="0px" style="enable-background:new 0 0 1400 980;" width="1400px" height="980px">

<linearGradient id="SVGID_1_" gradientUnits="userSpaceOnUse" x1="0" y1="980" x2="0.7071" y2="979.2929">
	<stop offset="0" style="stop-color:#1EAB4B"/>
	<stop offset="0.9831" style="stop-color:#19361A"/>
</linearGradient>


<g transform="matrix(0.9999999999999999, 0, 0, 0.9999999999999999, 0, -7.105427357601002e-15)">
		
		
		<g>
			<path d="M 262.299995 159.699997 A 65.400002 85.800003 0 0 1 196.899994 245.5 A 65.400002 85.800003 0 0 1 131.499992 159.699997 A 65.400002 85.800003 0 0 1 196.899994 73.899994 A 65.400002 85.800003 0 0 1 262.299995 159.699997 Z" class="st2" style="fill: rgb(245, 245, 245);"/>
			<path class="st2" d="M197.2,250c-7.7,0-15.1-1.8-22-5c-0.1,1-0.2,2.1-0.2,3.2v36.6c0,12.4,10.1,22.5,22.5,22.5h2.4&#10;&#9;&#9;&#9;&#9;c12.4,0,22.5-10.1,22.5-22.5v-36.6c0-1.6-0.2-3.1-0.5-4.6C214.3,247.7,205.9,250,197.2,250z" style="fill: rgb(245, 245, 245);"/>
			<path class="st2" d="M263.3,323.9c-20.5-9.8-17.4-25.9-26.4-36.7c-3.6-4.3-7.3-4.7-10.4-3.5v2.8c0,13.6-11.7,24.6-26.1,24.6h-2.8&#10;&#9;&#9;&#9;&#9;c-14.4,0-26.1-11-26.1-24.6v-2.6c-3.3-1.5-7.2-1.5-11.1,3.2c-9,10.8-5.9,26.9-26.4,36.7c-20.2,9.7-25.6,74.1,64.7,72.9&#10;&#9;&#9;&#9;&#9;C288.9,398,283.5,333.6,263.3,323.9z" style="fill: rgb(245, 245, 245);"/>
			<g>
				<path class="st1" d="M279.6,274.1c-0.1,0.9-0.3,1.8-0.6,2.7C279,276.8,279.5,275.9,279.6,274.1z" style="fill: rgb(35, 31, 32);"/>
				<path class="st1" d="M304.8,54.7c-22.5-18.6-47.3-4.3-47.3-4.3c-18.7,3.4-13.7-8.8-34.4-7.6c-14,0.8-19,11.8-24.7,19.3&#10;&#9;&#9;&#9;&#9;&#9;c0,0,0,0,0,0c5.9-9.6,8.1-17.1,20.3-20.4c12.2-3.3,18.6,3.5,31.6,5c13,1.5,18.6-9.3,18.6-9.3s-8.3,7.7-18.3,6.3&#10;&#9;&#9;&#9;&#9;&#9;c-12.3-1.7-16-10.8-33.8-5.7c-17.8,5.1-22.3,19-25.5,25.6c-1.9,3.8-5.5,5.5-8.1,6.2c-1,0.2-2.1,0.3-3.1,0.5h0l0,0&#10;&#9;&#9;&#9;&#9;&#9;c-11.6,2.1-25.8,6-35.2,12.9c-12,8.7-21.6,16.5-30.5,42.2c-8.9,25.6-5.5,57.2-5.1,69.6c0.3,12.4,0.3,22.4,5.1,31.8&#10;&#9;&#9;&#9;&#9;&#9;c4.8,9.5,4.8,24.2,4.8,24.2c3.7-12-0.2-19.1-3.3-29c-4-12.5-1.9-20.1-1.9-20.1s0.2,8.4,5.5,24c5.3,15.5,6.9,18.5,7.9,40.5&#10;&#9;&#9;&#9;&#9;&#9;c1.2,28.3,21.1,23.9,26.5,31.7c5.4,7.8,2.8,15.5,2.8,15.5c3.4-9.5,2.2-14,2.2-14c7.7,7,10.3,15,10.3,15&#10;&#9;&#9;&#9;&#9;&#9;c0.8-10.6-15.3-23.8-23.5-31.2c-8.2-7.5-4.1-13.5-3.9-21.6c0.1-8.1-1.6-12.7-5.7-19.2c-4.1-6.5-3.6-14.6-3.6-14.6&#10;&#9;&#9;&#9;&#9;&#9;c2.1,10.7,5.4,7.1,11.7,21.8c6.3,14.6,1.4,25.8,1.4,25.8s3.7-2,3.1-21.5c-0.7-19.5-13.2-38.6-13.3-55.4&#10;&#9;&#9;&#9;&#9;&#9;c-0.1-16.8,6.7-19,16.3-42.4c9.6-23.4,6.8-37.5,23.6-42.9c16.8-5.4,23.8,5,23.8,5c7.3-5.1,21.1-11.5,33.2,7.1&#10;&#9;&#9;&#9;&#9;&#9;c12,18.6,15.5,38,16.7,63.4c1.2,25.4-9.5,30-8.8,51.2c0.7,21.2,14.8,21,22.8,33c7.9,12,1.5,17.5-5.6,32.9&#10;&#9;&#9;&#9;&#9;&#9;c-7.1,15.4,3.6,26,3.6,26c-4.1-10.2-1.1-15.7,9.7-34.5c10.8-18.8-3.5-34.9-12.7-42.9c-9.2-8-5.1-24.6-5.1-24.6&#10;&#9;&#9;&#9;&#9;&#9;c-1.5,11.9,11.7,21.2,20.5,30.8c5.4,5.9,6.3,10.7,6.1,13.5c3.1-18.5-12.5-25-19.4-34.8c-7.3-10.3,3.1-23.3,11.7-38.6&#10;&#9;&#9;&#9;&#9;&#9;c8.6-15.3,6.5-27.7,6.5-27.7s16.2,3.1,30.9-4.2c14.7-7.3,13.9-23.3,9.5-32.7c-4.3-9.4-4.1-14.1,4-29.1&#10;&#9;&#9;&#9;&#9;&#9;C331,92,327.3,73.3,304.8,54.7z" style="fill: rgb(35, 31, 32);"/>
			</g>
		</g>
		
		
		
		
		<g>
			<g>
				<path class="st1" d="M165.7,586.7c-1.1,4.4-14.2,25.5-14.8,28.1c-0.5,2.6,1.1,24.8,0,31.7c-1.1,6.9,2.5,33.8,7.3,42.2&#10;&#9;&#9;&#9;&#9;&#9;c4.8,8.4,26.2,25.3,32.1,31.1c5.9,5.8-21.8,12.8,12.1,7c33.9-5.8,40.8-4.9,46-8.6c5.3-3.7,19-4,19.5-10.7&#10;&#9;&#9;&#9;&#9;&#9;c0.5-6.7,7.4-16.3,10.5-25.8c3.2-9.5,6.1-18.2,4.6-28.6c-1.5-10.4,3.3-14.6,3.3-29.9c0-15.3,4-28.8-3.3-36.6&#10;&#9;&#9;&#9;&#9;&#9;c-7.3-7.7-25.2-14.6-31-16.2" style="fill: rgb(35, 31, 32);"/>
				<path d="M 283.100006 550.599976 A 69.5 91.199997 0 0 1 213.600006 641.799973 A 69.5 91.199997 0 0 1 144.100006 550.599976 A 69.5 91.199997 0 0 1 213.600006 459.399979 A 69.5 91.199997 0 0 1 283.100006 550.599976 Z" class="st2" style="fill: rgb(245, 245, 245);"/>
				<path class="st2" d="M214,646.6c-8.2,0-16.1-1.9-23.4-5.3c-0.2,1.1-0.2,2.2-0.2,3.4v38.9c0,13.2,10.7,23.9,23.9,23.9h2.6&#10;&#9;&#9;&#9;&#9;&#9;c13.2,0,23.9-10.7,23.9-23.9v-38.9c0-1.7-0.2-3.3-0.5-4.8C232.1,644.2,223.3,646.6,214,646.6z" style="fill: rgb(245, 245, 245);"/>
				<path class="st2" d="M284.3,725.2c-21.8-10.5-18.5-27.6-28.1-39.1c-3.9-4.6-7.8-5-11.1-3.7v3c0,14.5-12.4,26.2-27.7,26.2h-3&#10;&#9;&#9;&#9;&#9;&#9;c-15.3,0-27.7-11.7-27.7-26.2v-2.7c-3.5-1.6-7.7-1.6-11.8,3.4c-9.6,11.5-6.3,28.6-28.1,39.1c-21.5,10.3-27.2,78.9,68.8,77.6&#10;&#9;&#9;&#9;&#9;&#9;C311.5,804.1,305.8,735.5,284.3,725.2z" style="fill: rgb(245, 245, 245);"/>
				<path class="st1" d="M188.1,836.8c0,0,22.9-16.9,27.7-36.2c4.8-19.3-9.6-52.5-9.6-52.5s13.3,13.9,13.9,23.5&#10;&#9;&#9;&#9;&#9;&#9;c0,0,5.2-13.2-13-38.3c-27.7-38.4-53.9-87.2-46.2-169.7c1.6-17.1,11.5-53.7,54.3-51.9s66.3,39.2,50.7,98.9&#10;&#9;&#9;&#9;&#9;&#9;c-15.7,59.7-44.6,89.5-31.1,141.4c0,0-1.8-18.7,1.5-31.1c0,0-1.2,20.5,9.6,40.4c10.9,19.9,8.4,49.7-5.1,67.5&#10;&#9;&#9;&#9;&#9;&#9;c0,0,32.8-20,22.4-60c0,0,34.2,13.1,13.9,58.7c0,0,31-1.2,34.2-28.7c2.5-22.3-15.1-30.5-13.9-50.7c1.2-20.2,7.1-28.4,7.1-28.4&#10;&#9;&#9;&#9;&#9;&#9;s-4.8,9.3-1.2,24.1c0,0,0.6-15.4,6.6-25c6-9.6,6.3-23.5,1.8-35c0,0,13.9,10.6,12.4,28c-1.5,17.5-9.7,35.6,0.1,45.5&#10;&#9;&#9;&#9;&#9;&#9;c0,0-4.7-9,0-21.7c4.7-12.7,13.2-18.1,8-38c-5.1-19.9-31.1-27.7-27.7-65.4c3.3-37.7,3.1-103.6-21.3-142.2&#10;&#9;&#9;&#9;&#9;&#9;c-24.4-38.6-111.4-49.5-139.1,4.2c-27.7,53.7-9.3,75.8-19.6,106c-10.3,30.2-2.4,43.1-8.4,66.3c-6,23.2-13,37.1-9.3,57&#10;&#9;&#9;&#9;&#9;&#9;c3.6,19.9,31.4,42.8,48.8,34.7c0,0-5.1,22.6-24.1,19.9c-19-2.7-27.4-10.6-27.4-10.6s14.5,29.5,37.1,29.2&#10;&#9;&#9;&#9;&#9;&#9;c22.6-0.3,28.6-13.6,28.6-13.6s-5.4,16.9-22.9,17.8c0,0,22,3.9,32.6-11.5c10.6-15.4,15.8-8.8,18.7,2.7&#10;&#9;&#9;&#9;&#9;&#9;C202,808.2,188.1,836.8,188.1,836.8z" style="fill: rgb(35, 31, 32);"/>
			</g>
			<path class="st1" d="M186.7,682.7c0,0-9.7,1.4-2.4,14.4c7.3,13-16.9-7.2-17.8-7.2c-0.9,0-3.3-9.9-2.4-14.1&#10;&#9;&#9;&#9;&#9;c0.9-4.2,5.2-8.3,7.4-8.3c2.2,0,6.9-0.6,9.3,0C183.2,668.1,186.7,682.7,186.7,682.7z" style="fill: rgb(35, 31, 32);"/>
		</g>
	</g></svg>