<?xml version="1.0" encoding="utf-8"?>
<svg id="master-artboard" viewBox="0 0 455.5750732421875 383.41015625" version="1.1" xmlns="http://www.w3.org/2000/svg" x="0px" y="0px" style="enable-background:new 0 0 1400 980;" width="455.5750732421875px" height="383.41015625px"><rect id="ee-background" x="0" y="0" width="455.5750732421875" height="383.41015625" style="fill: white; fill-opacity: 0; pointer-events: none;"/>


<path class="st1" d="M189.7,468.6C189.7,468.6,189.7,468.6,189.7,468.6c0.4,0,0.7,0,1.1,0c20.6-0.8,43.1-17,50-36.2&#10;&#9;&#9;c4.6-12.7,1.7-25.4-7.9-33.9c-6.8-6.1-11.4-28.9-11.3-40.4c5.3-1.9,12.2-4.5,21-7.9c8.2-3.2,16.6-6.4,21.5-8.1&#10;&#9;&#9;c6.9-2.3,24.4-3.7,37.4-3.7c2,0,3.6,0,4.6,0.1c2.6,2.3,6.9,7.4,9.7,10.6c8.8,10.4,15.2,17.9,25,17.9c9.3,0,17.6-4.8,23.4-13.5&#10;&#9;&#9;c5.8-8.8,9.7-22.1,11.8-40.9c2.8-24.9-0.8-52.9-2.5-63.8c-1.5-9.8-3.4-18.7-5.4-25.6c-2.9-9.9-6.3-17.2-13.6-20.4&#10;&#9;&#9;c-3.2-1.4-6.6-2.2-10.1-2.2c-11.6,0-19.4,7.7-27.1,15.1c-4.9,4.8-10.1,9.8-16.2,13c-4.1,2.1-8,3.3-12.3,3.6&#10;&#9;&#9;c-0.9,0.1-1.8,0.1-2.8,0.1c-12.1,0-28-5.2-44.8-10.7c-22-7.2-47-15.4-73-15.4c-2.1,0-4.3,0.1-6.4,0.2c-16.8,0.9-32.4,4.3-46.2,10&#10;&#9;&#9;c-35.1,14.6-54.6,42.9-53.2,77.5c1,26.3,19.5,47.3,52,59.4c6.3,2.3,12.4,4,17.4,5.2C134.7,414.7,155.9,468.6,189.7,468.6z" style="fill: rgb(249, 181, 174);" transform="matrix(1, 0, 0, 1, 0, -132.80975341796875)"/><path class="st2" d="M202.3,451.5C202.3,451.5,202.3,451.5,202.3,451.5c0.4,0,0.7,0,1.1,0c20.6-0.8,43.1-17,50-36.2&#10;&#9;&#9;c4.6-12.7,1.7-25.4-7.9-33.9c-6.8-6.1-11.4-28.9-11.3-40.4c5.3-1.9,12.2-4.5,21-7.9c8.2-3.2,16.6-6.4,21.5-8.1&#10;&#9;&#9;c6.9-2.3,24.4-3.7,37.4-3.7c2,0,3.6,0,4.6,0.1c2.6,2.3,6.9,7.4,9.7,10.6c8.8,10.4,15.2,17.9,25,17.9c9.3,0,17.6-4.8,23.4-13.5&#10;&#9;&#9;c5.8-8.8,9.7-22.1,11.8-40.9c2.8-24.9-0.8-52.9-2.5-63.8c-1.5-9.8-3.4-18.7-5.4-25.6c-2.9-9.9-6.3-17.2-13.6-20.4&#10;&#9;&#9;c-3.2-1.4-6.6-2.2-10.1-2.2c-11.6,0-19.4,7.7-27.1,15.1c-4.9,4.8-10.1,9.8-16.2,13c-4.1,2.1-8,3.3-12.3,3.6&#10;&#9;&#9;c-0.9,0.1-1.8,0.1-2.8,0.1c-12.1,0-28-5.2-44.8-10.7c-22-7.2-47-15.4-73-15.4c-2.1,0-4.3,0.1-6.4,0.2c-16.8,0.9-32.4,4.3-46.2,10&#10;&#9;&#9;c-35.1,14.6-54.6,42.9-53.2,77.5c1,26.3,19.5,47.3,52,59.4c6.3,2.3,12.4,4,17.4,5.2C147.4,397.6,168.5,451.5,202.3,451.5z" style="fill: rgb(255, 255, 255);" transform="matrix(1, 0, 0, 1, 0, -132.80975341796875)"/><path class="st8" d="M321.1,225.2c-5.2,2.8-11.2,4.8-18.3,5.3c-33.3,2.5-79.9-28.3-127.4-25.8c-14.9,0.8-28.9,3.8-41.1,8.9&#10;&#9;&#9;&#9;c-7.7,24.9-15.1,65.7-1.8,108.3c14.5,5.3,27.1,6.9,27.1,6.9c0,57.4,20.8,108.2,43.3,107.4c22.5-0.8,48.3-29.1,32.5-43.3&#10;&#9;&#9;&#9;c-15.8-14.2-20-61.6-13.3-64.1c7.5-1.7,37.5-14.2,49.9-18.3c12.1-4,40.5-4.9,49.9-4.2C326.5,274,323.8,243.6,321.1,225.2z" style="fill: rgb(245, 146, 143);" transform="matrix(1, 0, 0, 1, 0, -132.80975341796875)"/><path class="st5" d="M353.5,334.6c5.8,0,15.8-4.2,20-40.8c4.2-36.6-6.4-91.4-12.5-94.1c-11.8-5.2-20.5,15.3-40,25.5&#10;&#9;&#9;&#9;c2.7,18.4,5.5,48.8,0.8,81c0.3,0,0.6,0,0.9,0.1C331.1,307.1,347.7,334.6,353.5,334.6z" style="fill: rgb(250, 212, 104);" transform="matrix(1, 0, 0, 1, 0, -132.80975341796875)"/><path class="st5" d="M134.3,213.6c-26.8,11.2-44.9,32.4-43.8,62.7c0.9,25,23,38.5,42,45.5C119.2,279.3,126.6,238.5,134.3,213.6z" style="fill: rgb(250, 212, 104);" transform="matrix(1, 0, 0, 1, 0, -132.80975341796875)"/><path d="M 186.999994 261.700012 A 19.1 24.5 0 0 1 167.899994 286.200012 A 19.1 24.5 0 0 1 148.799994 261.700012 A 19.1 24.5 0 0 1 167.899994 237.200012 A 19.1 24.5 0 0 1 186.999994 261.700012 Z" class="st5" style="fill: rgb(250, 212, 104);" transform="matrix(1, 0, 0, 1, 0, -132.80975341796875)"/><path d="M 207.599997 354.100006 A 6.9 9.6 0 0 1 200.699997 363.700006 A 6.9 9.6 0 0 1 193.799997 354.100006 A 6.9 9.6 0 0 1 200.699997 344.500006 A 6.9 9.6 0 0 1 207.599997 354.100006 Z" class="st5" style="fill: rgb(250, 212, 104);" transform="matrix(1, 0, 0, 1, 0, -132.80975341796875)"/><path d="M 214.500006 381 A 6.9 9.6 0 0 1 207.600006 390.6 A 6.9 9.6 0 0 1 200.700006 381 A 6.9 9.6 0 0 1 207.600006 371.4 A 6.9 9.6 0 0 1 214.500006 381 Z" transform="matrix(-0.964100182056427, 0.2655999958515167, -0.2655999958515167, -0.964100182056427, 508.9224853515625, 560.3541259765625)" class="st5" style="fill: rgb(250, 212, 104);"/>

</svg>