<?xml version="1.0" encoding="utf-8"?>
<svg id="master-artboard" viewBox="0 0 393.54833984375 428.3870849609375" version="1.1" xmlns="http://www.w3.org/2000/svg" x="0px" y="0px" style="enable-background:new 0 0 1400 980;" width="393.54833984375px" height="428.3870849609375px"><rect id="ee-background" x="0" y="0" width="393.54833984375" height="428.3870849609375" style="fill: white; fill-opacity: 0; pointer-events: none;"/>


<path class="st1" d="M1016.2,685.9l-1.2-9.9c-0.2-1.8-0.7-3.5-1.5-5.1c0.4-1.7,0.5-3.5,0.3-5.3l-1.2-9.9c-0.2-1.8-0.8-3.5-1.5-5.1&#10;&#9;&#9;c0.4-1.7,0.5-3.5,0.3-5.3l-1.2-9.9c-0.2-1.8-0.8-3.5-1.5-5.1c0.4-1.7,0.5-3.5,0.3-5.3l-1.2-9.9c-0.2-1.8-0.8-3.5-1.5-5.1&#10;&#9;&#9;c0.4-1.7,0.5-3.5,0.3-5.3l-1.2-9.9c-0.2-1.8-0.7-3.5-1.5-5c0.4-1.7,0.5-3.5,0.3-5.3l-1.2-9.9c-0.4-3.2-1.8-6.2-3.9-8.5&#10;&#9;&#9;c0-0.9,0-1.8-0.1-2.7l-2.5-19.9c-1-7.7-7.5-13.4-15.2-13.4c-0.2,0-0.4,0-0.6,0l-91,3.6c-10,0.4-19.4,5-25.9,12.5&#10;&#9;&#9;c-6.5,7.6-9.6,17.6-8.4,27.5l29.8,260.8c1.8,15.5,14.9,27.2,30.4,27.2c1.4,0,2.9-0.1,4.4-0.3c15.5-2.2,26.8-15.7,26.3-31.4&#10;&#9;&#9;l-3.2-90.9l63.6-10.3c7.4-1.2,12.9-7.6,12.9-15.2v-17.4c0-3.1-1-6.2-2.7-8.7C1016.3,687,1016.2,686.4,1016.2,685.9z" style="fill: rgb(249, 181, 174);" transform="matrix(1, 0, 0, 1, -735.48388671875, -468.3871154785156)"/><path class="st2" d="M1028.8,668.8l-1.2-9.9c-0.2-1.8-0.7-3.5-1.5-5.1c0.4-1.7,0.5-3.5,0.3-5.3l-1.2-9.9c-0.2-1.8-0.8-3.5-1.5-5.1&#10;&#9;&#9;c0.4-1.7,0.5-3.5,0.3-5.3l-1.2-9.9c-0.2-1.8-0.8-3.5-1.5-5.1c0.4-1.7,0.5-3.5,0.3-5.3l-1.2-9.9c-0.2-1.8-0.8-3.5-1.5-5.1&#10;&#9;&#9;c0.4-1.7,0.5-3.5,0.3-5.3l-1.2-9.9c-0.2-1.8-0.7-3.5-1.5-5c0.4-1.7,0.5-3.5,0.3-5.3l-1.2-9.9c-0.4-3.2-1.8-6.2-3.9-8.5&#10;&#9;&#9;c0-0.9,0-1.8-0.1-2.7l-2.5-19.9c-1-7.7-7.5-13.4-15.2-13.4c-0.2,0-0.4,0-0.6,0l-91,3.6c-10,0.4-19.4,5-25.9,12.5&#10;&#9;&#9;c-6.5,7.6-9.6,17.6-8.4,27.5l29.8,260.8c1.8,15.5,14.9,27.2,30.4,27.2c1.4,0,2.9-0.1,4.4-0.3c15.5-2.2,26.8-15.7,26.3-31.4&#10;&#9;&#9;l-3.2-90.9l63.6-10.3c7.4-1.2,12.9-7.6,12.9-15.2v-17.4c0-3.1-1-6.2-2.7-8.7C1028.9,669.9,1028.9,669.4,1028.8,668.8z" style="fill: rgb(255, 255, 255);" transform="matrix(1, 0, 0, 1, -735.48388671875, -468.3871154785156)"/><path d="M 965.6 550.599976 A 1.6 1.6 0 0 1 964 552.199976 A 1.6 1.6 0 0 1 962.4 550.599976 A 1.6 1.6 0 0 1 964 548.999976 A 1.6 1.6 0 0 1 965.6 550.599976 Z" class="st3" style="fill: rgb(130, 121, 128);" transform="matrix(1, 0, 0, 1, -735.48388671875, -468.3871154785156)"/><path class="st8" d="M1016.2,679.2l-80.3,6.7l-0.8-5.6l78.4-9.6l-1.2-9.9l-78.5,9.6l-1.4-10.3l78.6-9.7l-1.2-9.9l-78.8,9.7&#10;&#9;&#9;l-1.4-10.3l78.9-9.7l-1.2-9.9l-79,9.7l-1.4-10.3l79.1-9.7l-1.2-9.9l-79.3,9.7l-1.4-10.3l79.4-9.8l-1.2-9.9l-79.5,9.8l-1.4-10.3&#10;&#9;&#9;l79.6-9.8l-1.2-9.9l-79.8,9.8l-1.7-12.6l77.4-8.3l-2.5-19.9l-91,3.6c-12,0.5-21,11-19.6,22.9l29.8,260.8c1,8.5,8.8,14.6,17.3,13.4&#10;&#9;&#9;c7.7-1.1,13.4-7.9,13.1-15.7l-3.7-104.5l77-12.5V679.2z" style="fill: rgb(245, 146, 143);" transform="matrix(1, 0, 0, 1, -735.48388671875, -468.3871154785156)"/>

</svg>