<?xml version="1.0" encoding="utf-8"?>
<svg id="master-artboard" viewBox="0 0 250.3225555419922 385.806396484375" version="1.1" xmlns="http://www.w3.org/2000/svg" x="0px" y="0px" style="enable-background:new 0 0 1400 980;" width="250.3225555419922px" height="385.806396484375px"><rect id="ee-background" x="0" y="0" width="250.3225555419922" height="385.806396484375" style="fill: white; fill-opacity: 0; pointer-events: none;"/>


<path class="st1" d="M1226.6,474.9c2.2,0,4.5-0.4,6.5-1.1c3.7-1.3,6.9-3.5,9.3-6.5c0.2,0,0.4,0,0.7,0c6.4,0,12.6-3.1,16.4-8.4&#10;&#9;&#9;c6.2-8.4,4.9-20-2.7-27.1c-3.9-5.8-16.4-35.1-30.5-77.4c-16.4-49-21.7-75.2-21.4-81.2c4-16.8,6.3-34.1-3.2-47&#10;&#9;&#9;c-3.9-5.3-11.4-11.8-24.6-12.6c-0.1,0-0.1,0-0.2,0c-0.5,0-1.1,0-1.6,0c-9.4,0-17.7,3.9-23.4,10.9c-9.9,12.4-10.4,32.8-1.4,64.2&#10;&#9;&#9;c8.6,30,56.4,171,56.9,172.4C1210.1,469.3,1217.9,474.9,1226.6,474.9z" style="fill: rgb(249, 181, 174);" transform="matrix(1, 0, 0, 1, -1105.161262512207, -110.32257843017578)"/><path class="st1" d="M1207.1,218.1c3.6,4.8,13.8,29.5,27.7,79.3c11.8,42.6,17.9,73.6,18,81.1c-1.2,4.3-0.9,8.9,0.9,13.1&#10;&#9;&#9;c2.1,5,6,8.9,11,11c2.5,1,5.1,1.6,7.8,1.6c4.5,0,8.7-1.4,12.1-4c1.9,0.6,3.9,0.9,5.9,0.9c1.8,0,3.6-0.2,5.4-0.7&#10;&#9;&#9;c5.3-1.4,9.6-4.8,12.3-9.6c2.7-4.7,3.4-10.2,2-15.5c-0.4-1.4-39.5-145.2-49.2-174.8c-10.1-31-21.9-47.7-37.1-52.4&#10;&#9;&#9;c-2.8-0.9-5.7-1.3-8.6-1.3c-6.5,0-12.8,2.2-18.3,6.4c-10.5,8-13.1,17.6-13.4,24.2C1182.8,193.3,1194.3,206.4,1207.1,218.1z" style="fill: rgb(249, 181, 174);" transform="matrix(1, 0, 0, 1, -1105.161262512207, -110.32257843017578)"/><path class="st2" d="M1239.3,457.8c2.2,0,4.5-0.4,6.5-1.1c3.7-1.3,6.9-3.5,9.3-6.5c0.2,0,0.4,0,0.7,0c6.4,0,12.6-3.1,16.4-8.4&#10;&#9;&#9;c6.2-8.4,4.9-20-2.7-27.1c-3.9-5.8-16.4-35.1-30.5-77.4c-16.4-49-21.7-75.2-21.4-81.2c4-16.8,6.3-34.1-3.2-47&#10;&#9;&#9;c-3.9-5.3-11.4-11.8-24.6-12.6c-0.1,0-0.1,0-0.2,0c-0.5,0-1.1,0-1.6,0c-9.4,0-17.7,3.9-23.4,10.9c-9.9,12.4-10.4,32.8-1.4,64.2&#10;&#9;&#9;c8.6,30,56.4,171,56.9,172.4C1222.8,452.2,1230.5,457.8,1239.3,457.8z" style="fill: rgb(255, 255, 255);" transform="matrix(1, 0, 0, 1, -1105.161262512207, -110.32257843017578)"/><path class="st2" d="M1219.7,201c3.6,4.8,13.8,29.5,27.7,79.3c11.8,42.6,17.9,73.6,18,81.1c-1.2,4.3-0.9,8.9,0.9,13.1&#10;&#9;&#9;c2.1,5,6,8.9,11,11c2.5,1,5.1,1.6,7.8,1.6c4.5,0,8.7-1.4,12.1-4c1.9,0.6,3.9,0.9,5.9,0.9c1.8,0,3.6-0.2,5.4-0.7&#10;&#9;&#9;c5.3-1.4,9.6-4.8,12.3-9.6c2.7-4.7,3.4-10.2,2-15.5c-0.4-1.4-39.5-145.2-49.2-174.8c-10.1-31-21.9-47.7-37.1-52.4&#10;&#9;&#9;c-2.8-0.9-5.7-1.3-8.6-1.3c-6.5,0-12.8,2.2-18.3,6.4c-10.5,8-13.1,17.6-13.4,24.2C1195.4,176.3,1207,189.3,1219.7,201z" style="fill: rgb(255, 255, 255);" transform="matrix(1, 0, 0, 1, -1105.161262512207, -110.32257843017578)"/><g transform="matrix(1, 0, 0, 1, -1105.161262512207, -110.32257843017578)">
			<path class="st6" d="M1239.3,442.4c-2.1,0-4-1.3-4.7-3.4c-2-5.8-48.4-142.8-56.7-171.7c-7.3-25.5-7.7-42.4-1.4-50.3&#10;&#9;&#9;&#9;&#9;c2-2.6,5.8-5.4,12.3-5.1c5.9,0.3,10.3,2.5,13.2,6.4c5.9,7.9,3.7,21.4,0.5,34.7c-4.7,19.7,45.5,164.2,56.2,172.8&#10;&#9;&#9;&#9;&#9;c2.1,1.7,2.6,4.8,1,7c-1.6,2.1-4.4,2.8-6.6,1.3c-15.1-10.1-65.3-162.7-60.4-183.4c1.3-5.2,5.1-21.2,1.2-26.4&#10;&#9;&#9;&#9;&#9;c-0.7-0.9-2-2.2-5.8-2.4c-2.4-0.2-3.3,0.6-3.9,1.4c-1.5,1.9-5.7,10.4,3.2,41.3c8.2,28.7,56,169.8,56.5,171.2&#10;&#9;&#9;&#9;&#9;c0.9,2.6-0.5,5.4-3.1,6.3C1240.3,442.3,1239.8,442.4,1239.3,442.4z" style="fill: rgb(155, 133, 121);"/>
		</g><path class="st6" d="M1285,371.6c-0.6,0-1.3-0.1-1.9-0.4c-2.5-1-3.8-4-2.7-6.5c4.1-13.1-35-161-50-174.7&#10;&#9;&#9;&#9;&#9;c-10.1-9.3-19.4-19.2-19-29.1c0.2-4.9,2.7-9.1,7.4-12.7c5.1-3.9,9.9-3.6,13.1-2.6c9.7,3,18.8,17.3,27,42.5&#10;&#9;&#9;&#9;&#9;c9.3,28.6,47.3,168.1,49,174.1c0.7,2.7-0.8,5.4-3.5,6.1c-2.7,0.7-5.4-0.9-6.1-3.5c-0.4-1.5-39.6-145.2-48.8-173.6&#10;&#9;&#9;&#9;&#9;c-10-30.6-18.2-35.3-20.5-36.1c-1-0.3-2.2-0.4-4,1c-3,2.3-3.4,4-3.4,5.2c-0.3,6.6,11.8,17.6,15.7,21.3&#10;&#9;&#9;&#9;&#9;c15.7,14.4,59.4,169,52.5,185.9C1288.9,370.4,1287,371.6,1285,371.6z" style="fill: rgb(155, 133, 121);" transform="matrix(1, 0, 0, 1, -1105.161262512207, -110.32257843017578)"/>

</svg>