<svg width='200' height='200' fill="#000000" xmlns="http://www.w3.org/2000/svg" xmlns:xlink="http://www.w3.org/1999/xlink" version="1.1" x="0px" y="0px" viewBox="0 0 100 100" enable-background="new 0 0 100 100" xml:space="preserve"><path d="M80.4929352,65.0570755c-0.609375-0.6972656-1.5078125-1.0976563-2.4638672-1.0976563h-6.2811279l1.1072388-2.9506836  c0.7733154-0.3115845,1.4237061-0.9136353,1.7490845-1.7348633l2.6826172-6.7871094  c0.5605469-1.4140625,0.2382813-3.0517578-0.8203125-4.1713867l-7.8789063-8.3388672  c-0.0400391-0.0424805-0.0556641-0.0957031-0.0439453-0.1313477l10.9316406-32.175293  c0.5673828-1.6757813-0.2539063-3.4633789-1.8710938-4.0703125l-4.1982422-1.5751953  c-1.6142578-0.6064453-3.4121094,0.1987305-4.0859375,1.8364258L56.3903961,35.2758255  c-0.0175781,0.0424805-0.0654297,0.0727539-0.1230469,0.078125l-11.4194336,1.0976563  c-1.5327148,0.1469727-2.8525391,1.168457-3.3623047,2.6025391l-2.4428711,6.8759766  c-0.296814,0.8336792-0.2033691,1.7162476,0.1751709,2.4602051L33.376297,63.9594193H21.9699879  c-0.956543,0-1.8544922,0.4003906-2.4638672,1.0976563c-0.5629883,0.6455078-0.8212891,1.4931641-0.7080078,2.3251953  l2.2612305,16.6845703c1.090332,8.0439453,8.6152344,14.1103516,17.5029278,14.1103516h22.875  c8.8867188,0,16.4121094-6.0664063,17.5029297-14.1103516l2.2617188-16.6845703  C81.3152008,66.549263,81.0564117,65.7016068,80.4929352,65.0570755z M43.5153351,42.3018875l0.796936-2.2433472  c0.1230469-0.3457031,0.4384766-0.5839844,0.8227539-0.6206055l11.4194336-1.0976563  c1.1611328-0.1118164,2.1582031-0.8422852,2.6064453-1.9150391L72.0935211,5.0023899  c0.046875-0.1137695,0.1425781-0.1762695,0.2177734-0.1762695c0.0146484,0,0.0283203,0.0024414,0.0410156,0.0068359  l4.1982422,1.5751953c0.0771484,0.0292969,0.1308594,0.1586914,0.0839844,0.2973633L65.700943,38.8886185  c-0.3652344,1.0947266-0.09375,2.3012695,0.7070313,3.1484375l7.8789063,8.3388672  c0.2646484,0.2802734,0.3457031,0.6665039,0.2109375,1.0073242l-0.8754883,2.2146606l-1.8071289,4.5714722  c-0.0244141,0.0634766-0.1220703,0.1054688-0.2207031,0.0683594l-0.7924805-0.2973633L42.7830353,47.427681l-0.7925415-0.2973633  c-0.1005859-0.0380859-0.144043-0.1308594-0.1210938-0.1953125L43.5153351,42.3018875z M41.7292633,50.2362747L69.7481842,60.74897  l-1.2046509,3.2104492h-2.0970459l0.0630493-0.1679688c0.2910156-0.7763672-0.1015625-1.640625-0.8769531-1.9316406  c-0.7744141-0.2900391-1.640625,0.1015625-1.9316406,0.8769531l-0.4587402,1.2226563h-2.9362793l0.8208008-2.1875  c0.2910156-0.7763672-0.1015625-1.640625-0.8769531-1.9316406c-0.7744141-0.2919922-1.640625,0.1015625-1.9316406,0.8769531  l-1.2165527,3.2421875h-2.937439l1.5787964-4.2080078c0.2910156-0.7763672-0.1015625-1.640625-0.8769531-1.9316406  c-0.7744141-0.2900391-1.640625,0.1015625-1.9316406,0.8769531l-1.9744873,5.2626953h-2.9373779l2.3366699-6.2275391  c0.2910156-0.7763672-0.1015625-1.640625-0.8769531-1.9316406c-0.7734375-0.2900391-1.6401367,0.1015625-1.9316406,0.8769531  l-2.7324219,7.2822266H41.881424l3.0944214-8.2470703c0.2910156-0.7763672-0.1015625-1.640625-0.8774414-1.9316406  c-0.7729492-0.2910156-1.6396484,0.1015625-1.9311523,0.8769531l-3.4901733,9.3017578h-2.0966797L41.7292633,50.2362747z   M75.9675446,83.6644974c-0.890625,6.5634766-7.1367188,11.5126953-14.5302734,11.5126953h-22.875  c-7.3935528,0-13.6401348-4.9492188-14.5302715-11.5126953l-2.2558594-16.6445313  c0.0273438-0.0234375,0.090332-0.0605469,0.1938477-0.0605469h56.059082c0.1230469,0,0.1894531,0.0527344,0.1992188,0.0273438  L75.9675446,83.6644974z"></path></svg>