<?xml version="1.0" encoding="utf-8"?>
<svg id="master-artboard" viewBox="0 0 362.5805969238281 467.09674072265625" version="1.1" xmlns="http://www.w3.org/2000/svg" x="0px" y="0px" style="enable-background:new 0 0 1400 980;" width="362.5805969238281px" height="467.09674072265625px"><rect id="ee-background" x="0" y="0" width="362.5805969238281" height="467.09674072265625" style="fill: white; fill-opacity: 0; pointer-events: none;"/>


<path class="st1" d="M1094,522.5l-75.9,11.3v-4.6c0-4.6-3.8-8.4-8.4-8.4h-7.9c-4.6,0-8.4,3.8-8.4,8.4v344.4c0,4.6,3.8,8.4,8.4,8.4&#10;&#9;&#9;h7.9c4.6,0,8.4-3.8,8.4-8.4V702l75.9,11.3c6,0.9,11.4-3.8,11.4-9.8V532.3C1105.4,526.2,1100,521.6,1094,522.5z" style="fill: rgb(226, 170, 186);" transform="matrix(1, 0, 0, 1, -845.8064575195312, -452.90325927734375)"/><path class="st2" d="M985.2,864.3h5.7c5.2,0,9.5-4.3,9.5-9.5V512.6c0-5.2-4.3-9.5-9.5-9.5h-5.7c-5.2,0-9.5,4.3-9.5,9.5v342.2&#10;&#9;&#9;&#9;C975.7,860.1,979.9,864.3,985.2,864.3z" style="fill: rgb(229, 60, 112);" transform="matrix(1, 0, 0, 1, -845.8064575195312, -452.90325927734375)"/><path class="st4" d="M1000.4,684.3l75.9,11.3c6,0.9,11.4-3.8,11.4-9.8V514.6c0-6.1-5.4-10.7-11.4-9.8l-75.9,11.3V684.3z" style="fill: rgb(64, 64, 65);" transform="matrix(1, 0, 0, 1, -845.8064575195312, -452.90325927734375)"/>
</svg>