<?xml version="1.0" encoding="utf-8"?>
<svg id="master-artboard" viewBox="0 0 387.7419128417969 378.06451416015625" version="1.1" xmlns="http://www.w3.org/2000/svg" x="0px" y="0px" style="enable-background:new 0 0 1400 980;" width="387.7419128417969px" height="378.06451416015625px"><rect id="ee-background" x="0" y="0" width="387.7419128417969" height="378.06451416015625" style="fill: white; fill-opacity: 0; pointer-events: none;"/>


<path class="st1" d="M727.3,230.4l-176.7-51.3c-2.7-0.8-5.5-1.2-8.4-1.2c-13.3,0-25.1,8.9-28.8,21.6l-9.8,33.6&#10;&#9;&#9;c-2.2,7.4-1.3,15.3,2.4,22.1c3.7,6.8,9.9,11.7,17.3,13.9c2.6,0.8,5.4,1.2,8.1,1.2c6.1,0,11.9-2,16.7-5.3&#10;&#9;&#9;c3.3,7.9,9.9,14.3,18.7,16.8l1.5,0.4c2.6,0.8,5.4,1.2,8.1,1.2c6.1,0,11.9-2,16.7-5.3c3.3,7.9,9.9,14.3,18.7,16.8l1.5,0.4&#10;&#9;&#9;c2.6,0.8,5.4,1.2,8.1,1.2c6.1,0,11.9-2,16.7-5.3c1.6,3.9,4,7.4,7.2,10.3c-2.4,1.9-4.6,4.1-6.3,6.7c-5.3-5.7-12.9-9.3-21.2-9.3&#10;&#9;&#9;c-0.7,0-1.4,0-2.1,0.1l-1.6,0.1c-9.1,0.7-17,5.5-21.8,12.6c-5.3-5.7-12.9-9.3-21.2-9.3c-0.7,0-1.4,0-2.1,0.1l-1.6,0.1&#10;&#9;&#9;c-9.1,0.7-17,5.5-21.8,12.6c-5.3-5.7-12.9-9.3-21.2-9.3c-0.7,0-1.4,0-2.1,0.1l-1.6,0.1c-9.1,0.7-17,5.5-21.8,12.6&#10;&#9;&#9;c-5.3-5.7-12.9-9.3-21.2-9.3c-0.7,0-1.4,0-2.1,0.1c-15.9,1.2-28,15.1-26.8,31l2.6,34.9c1.1,15.6,14.3,27.8,29.9,27.8c0,0,0,0,0,0&#10;&#9;&#9;c0.7,0,1.5,0,2.2-0.1l183.5-13.4c16.5-1.2,28.9-15.6,27.7-32.1l-2.6-34.9c-0.2-2.8-0.8-5.6-1.8-8.1c3.2,3.1,7.3,5.5,11.8,6.8&#10;&#9;&#9;c2.6,0.8,5.4,1.2,8.1,1.2c0,0,0,0,0,0c12.8,0,24.3-8.6,27.8-20.9l9.8-33.6c2.2-7.7,1.3-15.8-2.5-22.8&#10;&#9;&#9;C741.4,237.8,735,232.7,727.3,230.4z" style="fill: rgb(249, 181, 174);" transform="matrix(1, 0, 0, 1, -412.25807189941406, -112.25806427001953)"/><path class="st2" d="M740,213.4L563.3,162c-2.7-0.8-5.5-1.2-8.4-1.2c-13.3,0-25.1,8.9-28.8,21.6l-9.8,33.6&#10;&#9;&#9;c-2.2,7.4-1.3,15.3,2.4,22.1c3.7,6.8,9.9,11.7,17.3,13.9c2.6,0.8,5.4,1.2,8.1,1.2c6.1,0,11.9-2,16.7-5.3&#10;&#9;&#9;c3.3,7.9,9.9,14.3,18.7,16.8l1.5,0.4c2.6,0.8,5.4,1.2,8.1,1.2c6.1,0,11.9-2,16.7-5.3c3.3,7.9,9.9,14.3,18.7,16.8l1.5,0.4&#10;&#9;&#9;c2.6,0.8,5.4,1.2,8.1,1.2c6.1,0,11.9-2,16.7-5.3c1.6,3.9,4,7.4,7.2,10.3c-2.4,1.9-4.6,4.1-6.3,6.7c-5.3-5.7-12.9-9.3-21.2-9.3&#10;&#9;&#9;c-0.7,0-1.4,0-2.1,0.1l-1.6,0.1c-9.1,0.7-17,5.5-21.8,12.6c-5.3-5.7-12.9-9.3-21.2-9.3c-0.7,0-1.4,0-2.1,0.1l-1.6,0.1&#10;&#9;&#9;c-9.1,0.7-17,5.5-21.8,12.6c-5.3-5.7-12.9-9.3-21.2-9.3c-0.7,0-1.4,0-2.1,0.1l-1.6,0.1c-9.1,0.7-17,5.5-21.8,12.6&#10;&#9;&#9;c-5.3-5.7-12.9-9.3-21.2-9.3c-0.7,0-1.4,0-2.1,0.1c-15.9,1.2-28,15.1-26.8,31l2.6,34.9c1.1,15.6,14.3,27.8,29.9,27.8c0,0,0,0,0,0&#10;&#9;&#9;c0.7,0,1.5,0,2.2-0.1l183.5-13.4c16.5-1.2,28.9-15.6,27.7-32.1l-2.6-34.9c-0.2-2.8-0.8-5.6-1.8-8.1c3.2,3.1,7.3,5.5,11.8,6.8&#10;&#9;&#9;c2.6,0.8,5.4,1.2,8.1,1.2c0,0,0,0,0,0c12.8,0,24.3-8.6,27.8-20.9l9.8-33.6c2.2-7.7,1.3-15.8-2.5-22.8&#10;&#9;&#9;C754,220.7,747.7,215.6,740,213.4z" style="fill: rgb(255, 255, 255);" transform="matrix(1, 0, 0, 1, -412.25807189941406, -112.25806427001953)"/><path class="st4" d="M674.7,293.7c-7.5,0.6-13.1,7.1-12.6,14.6l1.5,20.6c0.4,5-3.4,9.3-8.3,9.7l0,0c-5,0.4-9.3-3.4-9.7-8.3&#10;&#9;&#9;&#9;l-1.5-20.6c-0.6-7.5-7.1-13.1-14.6-12.6l-1.6,0.1c-7.5,0.6-13.1,7.1-12.6,14.6l1.5,20.6c0.4,5-3.4,9.3-8.3,9.7l0,0&#10;&#9;&#9;&#9;c-5,0.4-9.3-3.4-9.7-8.3l-1.5-20.6c-0.6-7.5-7.1-13.1-14.6-12.6l-1.6,0.1c-7.5,0.6-13.1,7.1-12.6,14.6l1.5,20.6&#10;&#9;&#9;&#9;c0.4,5-3.4,9.3-8.3,9.7l0,0c-5,0.4-9.3-3.4-9.7-8.3l-1.5-20.6c-0.6-7.5-7.1-13.1-14.6-12.6l-1.6,0.1c-7.5,0.6-13.1,7.1-12.6,14.6&#10;&#9;&#9;&#9;l1.5,20.6c0.4,5-3.4,9.3-8.3,9.7h0c-5,0.4-9.3-3.4-9.7-8.3l-1.5-20.6c-0.6-7.5-7.1-13.1-14.6-12.6c-7.5,0.6-13.1,7.1-12.6,14.6&#10;&#9;&#9;&#9;l2.6,34.9c0.6,8.1,7.6,14.1,15.7,13.5l183.5-13.4c8.1-0.6,14.1-7.6,13.5-15.7l-2.6-34.9C688.8,298.8,682.2,293.2,674.7,293.7z" style="fill: rgb(189, 225, 200);" transform="matrix(1, 0, 0, 1, -412.25807189941406, -112.25806427001953)"/><path class="st4" d="M540.4,237.3c7.2,2.1,14.8-2.1,16.9-9.3l5.8-19.8c1.4-4.8,6.4-7.5,11.2-6.1l0,0c4.8,1.4,7.5,6.4,6.1,11.2&#10;&#9;&#9;&#9;l-5.8,19.8c-2.1,7.2,2.1,14.8,9.3,16.9l1.5,0.4c7.2,2.1,14.8-2.1,16.9-9.3l5.8-19.8c1.4-4.8,6.4-7.5,11.2-6.1l0,0&#10;&#9;&#9;&#9;c4.8,1.4,7.5,6.4,6.1,11.2l-5.8,19.8c-2.1,7.2,2.1,14.8,9.3,16.9l1.5,0.4c7.2,2.1,14.8-2.1,16.9-9.3l5.8-19.8&#10;&#9;&#9;&#9;c1.4-4.8,6.4-7.5,11.2-6.1l0,0c4.8,1.4,7.5,6.4,6.1,11.2l-5.8,19.8c-2.1,7.2,2.1,14.8,9.3,16.9l1.5,0.4c7.2,2.1,14.8-2.1,16.9-9.3&#10;&#9;&#9;&#9;l5.8-19.8c1.4-4.8,6.4-7.5,11.2-6.1l0,0c4.8,1.4,7.5,6.4,6.1,11.2l-5.8,19.8c-2.1,7.2,2.1,14.8,9.3,16.9&#10;&#9;&#9;&#9;c7.2,2.1,14.8-2.1,16.9-9.3l9.8-33.6c2.3-7.8-2.2-15.9-10-18.1L559,176.8c-7.8-2.3-15.9,2.2-18.1,10l-9.8,33.6&#10;&#9;&#9;&#9;C529,227.6,533.2,235.2,540.4,237.3z" style="fill: rgb(189, 225, 200);" transform="matrix(1, 0, 0, 1, -412.25807189941406, -112.25806427001953)"/>

</svg>