<?xml version="1.0" encoding="utf-8"?>
<svg id="master-artboard" viewBox="0 0 491.4126281738281 421.3557434082031" version="1.1" xmlns="http://www.w3.org/2000/svg" x="0px" y="0px" style="enable-background:new 0 0 1400 980;" width="491.4126281738281px" height="421.3557434082031px"><rect id="ee-background" x="0" y="0" width="491.4126281738281" height="421.3557434082031" style="fill: white; fill-opacity: 0; pointer-events: none;"/>



<path class="st1" d="M532.1,290.6c0.4-0.4,0.8-0.8,1.1-1.2c0-0.1,0.1-0.1,0.1-0.2c1.1-1.2,2.2-2.5,3.2-3.8c0.1-0.1,0.2-0.3,0.3-0.4&#10;&#9;&#9;c0.3-0.4,0.6-0.8,0.9-1.2c0.1-0.1,0.1-0.1,0.2-0.2c0.6-0.8,1.1-1.6,1.7-2.4c0.1-0.2,0.2-0.3,0.3-0.5c0.2-0.4,0.5-0.8,0.7-1.1&#10;&#9;&#9;c0.1-0.2,0.3-0.4,0.4-0.6c0.2-0.4,0.5-0.8,0.7-1.1c0.1-0.2,0.2-0.4,0.3-0.6c0.4-0.7,0.8-1.4,1.1-2.1c0.2-0.3,0.3-0.6,0.5-0.9&#10;&#9;&#9;c0.2-0.3,0.3-0.7,0.5-1c0.2-0.3,0.3-0.7,0.5-1c0.2-0.4,0.4-0.8,0.5-1.2c0.2-0.5,0.5-1,0.7-1.6c0.1-0.3,0.2-0.6,0.4-0.9&#10;&#9;&#9;c0.2-0.4,0.3-0.8,0.5-1.2c0.1-0.3,0.2-0.6,0.3-0.9c0.2-0.5,0.4-1.1,0.6-1.6c0.1-0.3,0.2-0.5,0.3-0.8c0.2-0.5,0.3-1.1,0.5-1.7&#10;&#9;&#9;c0.1-0.3,0.1-0.5,0.2-0.8c0.1-0.5,0.3-1,0.4-1.5c0.1-0.2,0.1-0.5,0.2-0.7c0.2-0.7,0.3-1.4,0.5-2.1c0-0.2,0.1-0.4,0.1-0.6&#10;&#9;&#9;c0.1-0.6,0.2-1.1,0.3-1.7c0-0.2,0.1-0.5,0.1-0.7c0.1-0.6,0.2-1.2,0.3-1.8c0-0.2,0-0.3,0.1-0.5c0.1-0.8,0.2-1.5,0.2-2.3&#10;&#9;&#9;c0-0.2,0-0.4,0-0.6c0-0.6,0.1-1.2,0.1-1.8c0-0.2,0-0.5,0-0.7c0-0.8,0-1.6,0-2.4c0-1.1,0-2.1-0.1-3.2c0-0.1,0-0.3,0-0.4&#10;&#9;&#9;c-0.1-1-0.1-2-0.2-3c0-0.2,0-0.4-0.1-0.5c-0.1-1-0.2-1.9-0.4-2.9c0-0.2-0.1-0.3-0.1-0.5c-0.2-1-0.3-1.9-0.5-2.9&#10;&#9;&#9;c0-0.1,0-0.2-0.1-0.3c-0.2-0.9-0.4-1.9-0.7-2.8c0-0.1,0-0.2-0.1-0.3c-0.2-0.9-0.5-1.9-0.8-2.8c0-0.2-0.1-0.3-0.1-0.5&#10;&#9;&#9;c-0.3-0.9-0.6-1.8-0.9-2.6c-0.1-0.2-0.1-0.4-0.2-0.5c-0.3-0.9-0.7-1.7-1-2.6c-0.1-0.2-0.1-0.3-0.2-0.5c-0.4-0.9-0.8-1.7-1.2-2.6&#10;&#9;&#9;c0-0.1-0.1-0.1-0.1-0.2c-0.4-0.8-0.8-1.6-1.2-2.4c-0.1-0.1-0.2-0.3-0.2-0.4c-0.4-0.8-0.9-1.6-1.4-2.3c-0.1-0.2-0.2-0.4-0.3-0.5&#10;&#9;&#9;c-0.5-0.8-0.9-1.5-1.4-2.2c-0.1-0.2-0.2-0.4-0.4-0.5c-0.5-0.7-1-1.5-1.6-2.2c-0.1-0.1-0.2-0.3-0.3-0.4c-0.5-0.7-1-1.3-1.6-2&#10;&#9;&#9;c-0.1-0.1-0.2-0.2-0.3-0.3c-0.6-0.7-1.2-1.4-1.8-2c-0.1-0.2-0.3-0.3-0.4-0.5c-0.6-0.6-1.2-1.3-1.8-1.9c-0.2-0.2-0.3-0.3-0.5-0.5&#10;&#9;&#9;c-0.6-0.6-1.2-1.2-1.9-1.8c-0.2-0.1-0.3-0.3-0.5-0.4c-0.7-0.6-1.3-1.2-2-1.7c-7.5-6.2-16.4-10.8-26.2-13.3l0,0&#10;&#9;&#9;c-0.7-0.2-1.5-0.4-2.2-0.5c-0.4-0.1-0.8-0.2-1.2-0.3c-0.7-0.1-1.4-0.3-2.1-0.4c-0.4-0.1-0.8-0.1-1.2-0.2c-0.7-0.1-1.4-0.2-2.1-0.3&#10;&#9;&#9;c-0.3,0-0.6-0.1-0.9-0.1c-0.9-0.1-1.8-0.2-2.8-0.2c-0.2,0-0.5,0-0.7,0c-1,0-2-0.1-3-0.1l0,0c0,0,0,0,0,0c-1.4,0-2.9,0.1-4.3,0.2&#10;&#9;&#9;l0,0c-28.5,0-56.8,4.5-83.9,13.4c-2.8,0.9-5.7,1.8-8.6,2.6l-83.5,22.2v-1.5H284v1.5l-41.7-28.7c-4.7-3.2-11.1,0.1-11.1,5.8v101.9&#10;&#9;&#9;c0,5.7,6.4,9.1,11.1,5.8l41.7-28.7v1.7h20.1v-1.5l102.8,28.7c2.2,0.6,4.3,1.4,6.4,2.4c13,6.3,21.5,19.6,21.5,34.3l0,11.5&#10;&#9;&#9;c-0.1-0.1-0.3-0.1-0.5-0.1h-1.6c-0.6,0-1.1,0.5-1.1,1.1v10c0,0.6,0.5,1.1,1.1,1.1h1.6c0.2,0,0.3,0,0.5-0.1l0,8.4&#10;&#9;&#9;c-0.1-0.1-0.3-0.1-0.5-0.1h-1.6c-0.6,0-1.1,0.5-1.1,1.1v10c0,0.6,0.5,1.1,1.1,1.1h1.6c0.2,0,0.3,0,0.5-0.1l0,8.4&#10;&#9;&#9;c-0.1-0.1-0.3-0.1-0.4-0.1h-1.6c-0.6,0-1.1,0.5-1.1,1.1v10c0,0.6,0.5,1.1,1.1,1.1h1.6c0.2,0,0.3,0,0.4-0.1l0,7.8&#10;&#9;&#9;c0,13.7,11.1,24.9,24.9,24.9h0c13.7,0,24.9-11.1,24.9-24.9l0-68.8c0-0.1,0-0.2,0-0.4v0.2c0-3.1,0.4-6.2,1.1-9.2c0,0,0,0,0,0&#10;&#9;&#9;c0.5-2.2,1.3-4.3,2.2-6.4c0,0,0-0.1,0-0.1c0.6-1.3,1.3-2.6,2-3.9c0,0,0-0.1,0.1-0.1c0.4-0.6,0.8-1.2,1.2-1.8c0,0,0,0,0,0&#10;&#9;&#9;c0.8-1.2,1.7-2.4,2.7-3.5c0,0,0.1-0.1,0.1-0.1c1-1.1,2-2.1,3.1-3.1c0,0,0.1-0.1,0.1-0.1c0.5-0.5,1.1-0.9,1.6-1.4&#10;&#9;&#9;c0,0,0.1-0.1,0.1-0.1c0.6-0.4,1.2-0.9,1.8-1.3v0c2.4-1.6,4.9-3,7.7-4.1c7.3-2.8,14-6.9,19.8-12c0.1,0,0.1-0.1,0.2-0.1&#10;&#9;&#9;c1.3-1.1,2.5-2.3,3.7-3.5C532,290.7,532.1,290.7,532.1,290.6z" style="fill: rgb(226, 170, 186);" transform="matrix(1, 0, 0, 1, -132.80974578857422, -67.45892333984375)"/><g transform="matrix(1, 0, 0, 1, -132.80974578857422, -67.45892333984375)">
			<path class="st2" d="M266.3,254.8l-41.7,28.7c-4.7,3.2-11.1-0.1-11.1-5.8V175.7c0-5.7,6.4-9.1,11.1-5.8l41.7,28.7V254.8z" style="fill: rgb(229, 60, 112);"/>
			<path d="M 266.299988 197 H 286.399988 V 256.5 H 266.299988 V 197 Z" class="st3" style="fill: rgb(245, 128, 158);"/>
			<path class="st2" d="M533.2,226.6c0-36.7-29.8-66.5-66.5-66.5c-1.4,0-2.9,0.1-4.3,0.2h0c-28.5,0-56.8,4.5-83.9,13.4&#10;&#9;&#9;&#9;&#9;c-2.8,0.9-5.7,1.8-8.6,2.6l-83.5,22.2V255l102.8,28.7c2.2,0.6,4.3,1.4,6.4,2.4c13,6.3,21.5,19.6,21.5,34.3l0,72.5&#10;&#9;&#9;&#9;&#9;c0,13.7,11.1,24.9,24.9,24.9h0c13.7,0,24.9-11.1,24.9-24.9l0-68.8c0-15.6,9.3-29.8,23.9-35.4&#10;&#9;&#9;&#9;&#9;C515.5,279.1,533.2,254.9,533.2,226.6z" style="fill: rgb(229, 60, 112);"/>
			<g>
				<path d="M 466.70001220703125 333.20001220703125 L 466.70001220703125 333.29998779296875 L 466.70001220703125 333.29998779296875 Z" class="st3" style="fill: rgb(245, 128, 158);"/>
				<path class="st3" d="M482.9,162.1c-5.2-1.3-10.6-2-16.2-2v163.8c0-12.5,6.2-24.2,16.2-31.2V162.1z" style="fill: rgb(245, 128, 158);"/>
			</g>
			<path class="st4" d="M509.1,175.4v102.5c14.7-12.2,24.1-30.6,24.1-51.2C533.2,206,523.8,187.6,509.1,175.4z" style="fill: rgb(64, 64, 65);"/>
			<g>
				<path d="M 509 269.100006 L 528.700012 250" class="st5" style="fill: none; stroke: rgb(245, 128, 158); stroke-width: 2.6547; stroke-miterlimit: 10;"/>
				<path d="M 509.200012 236.100006 L 532.299988 213.699997" class="st5" style="fill: none; stroke: rgb(245, 128, 158); stroke-width: 2.6547; stroke-miterlimit: 10;"/>
				<path d="M 509.200012 203.300003 L 522.700012 190.199997" class="st5" style="fill: none; stroke: rgb(245, 128, 158); stroke-width: 2.6547; stroke-miterlimit: 10;"/>
				<path d="M 508.899994 183.100006 L 529.900024 204.800003" class="st5" style="fill: none; stroke: rgb(245, 128, 158); stroke-width: 2.6547; stroke-miterlimit: 10;"/>
				<path d="M 509.200012 213.899994 L 532.200012 237.699997" class="st5" style="fill: none; stroke: rgb(245, 128, 158); stroke-width: 2.6547; stroke-miterlimit: 10;"/>
				<path d="M 509.299988 244.5 L 524.099976 259.799988" class="st5" style="fill: none; stroke: rgb(245, 128, 158); stroke-width: 2.6547; stroke-miterlimit: 10;"/>
				<path class="st5" d="M510.4,276.1" style="fill: none; stroke: rgb(245, 128, 158); stroke-width: 2.6547; stroke-miterlimit: 10;"/>
			</g>
			<path class="st6" d="M416.4,344.2h-1.3c-0.7,0-1.3-0.6-1.3-1.3v-9.7c0-0.7,0.6-1.3,1.3-1.3h1.3c0.7,0,1.3,0.6,1.3,1.3v9.7&#10;&#9;&#9;&#9;&#9;C417.7,343.6,417.2,344.2,416.4,344.2z" style="fill: rgb(251, 150, 173);"/>
			<path class="st6" d="M416.4,364.7h-1.3c-0.7,0-1.3-0.6-1.3-1.3v-9.7c0-0.7,0.6-1.3,1.3-1.3h1.3c0.7,0,1.3,0.6,1.3,1.3v9.7&#10;&#9;&#9;&#9;&#9;C417.7,364.1,417.2,364.7,416.4,364.7z" style="fill: rgb(251, 150, 173);"/>
			<path class="st6" d="M416.4,385.2h-1.3c-0.7,0-1.3-0.6-1.3-1.3v-9.7c0-0.7,0.6-1.3,1.3-1.3h1.3c0.7,0,1.3,0.6,1.3,1.3v9.7&#10;&#9;&#9;&#9;&#9;C417.7,384.6,417.2,385.2,416.4,385.2z" style="fill: rgb(251, 150, 173);"/>
		</g><path class="st7" d="M226.2,235h-0.4c-1.7,0-3-1.4-3-3V191c0-1.7,1.4-3,3-3h0.4c1.7,0,3,1.4,3,3v40.9&#10;&#9;&#9;&#9;C229.2,233.6,227.9,235,226.2,235z" style="fill: rgb(255, 255, 255);" transform="matrix(1, 0, 0, 1, -132.80974578857422, -67.45892333984375)"/><path d="M 228.999994 242.300003 A 3.1 3.1 0 0 1 225.899994 245.400003 A 3.1 3.1 0 0 1 222.799994 242.300003 A 3.1 3.1 0 0 1 225.899994 239.200003 A 3.1 3.1 0 0 1 228.999994 242.300003 Z" class="st7" style="fill: rgb(255, 255, 255);" transform="matrix(1, 0, 0, 1, -132.80974578857422, -67.45892333984375)"/></svg>