<?xml version="1.0" encoding="utf-8"?>
<svg id="master-artboard" viewBox="0 0 370.3225402832031 368.3870544433594" version="1.1" xmlns="http://www.w3.org/2000/svg" x="0px" y="0px" style="enable-background:new 0 0 1400 980;" width="370.3225402832031px" height="368.3870544433594px"><rect id="ee-background" x="0" y="0" width="370.3225402832031" height="368.3870544433594" style="fill: white; fill-opacity: 0; pointer-events: none;"/>


<path class="st1" d="M826,252.4c0-40.3-32.7-73-73-73c-40.3,0-73,32.7-73,73v109.5h0c0,0.3,0,0.5,0,0.8c0,40.3,32.7,73,73,73&#10;&#9;&#9;c40.3,0,73-32.7,73-73c0-0.3,0-0.5,0-0.8h0V252.4z" style="fill: rgb(226, 170, 186);" transform="matrix(1, 0, 0, 1, -563.2258529663086, -108.38709259033203)"/><path class="st2" d="M808.3,234.7c0-40.3-32.7-73-73-73c-40.3,0-73,32.7-73,73v109.5h0c0,0.3,0,0.5,0,0.8c0,40.3,32.7,73,73,73&#10;&#9;&#9;&#9;c40.3,0,73-32.7,73-73c0-0.3,0-0.5,0-0.8h0V234.7z" style="fill: rgb(229, 60, 112);" transform="matrix(1, 0, 0, 1, -563.2258529663086, -108.38709259033203)"/><path class="st6" d="M800.4,237.6c0-35.9-29.1-65-65-65c-35.9,0-65,29.1-65,65v100.6h0c0,0.2,0,3.6,0,3.8c0,35.9,29.1,65,65,65&#10;&#9;&#9;&#9;c35.9,0,65-29.1,65-65c0-0.2,0-3.6,0-3.8h0V237.6z" style="fill: rgb(251, 150, 173);" transform="matrix(1, 0, 0, 1, -563.2258529663086, -108.38709259033203)"/><path d="M 740.899988 189.100006 A 5.6 5.6 0 0 1 735.299988 194.700006 A 5.6 5.6 0 0 1 729.699988 189.100006 A 5.6 5.6 0 0 1 735.299988 183.500006 A 5.6 5.6 0 0 1 740.899988 189.100006 Z" class="st4" style="fill: rgb(64, 64, 65);" transform="matrix(1, 0, 0, 1, -563.2258529663086, -108.38709259033203)"/><path d="M 740.899988 204.600006 A 5.6 5.6 0 0 1 735.299988 210.200006 A 5.6 5.6 0 0 1 729.699988 204.600006 A 5.6 5.6 0 0 1 735.299988 199.000006 A 5.6 5.6 0 0 1 740.899988 204.600006 Z" class="st4" style="fill: rgb(64, 64, 65);" transform="matrix(1, 0, 0, 1, -563.2258529663086, -108.38709259033203)"/><path d="M 740.899988 220.100006 A 5.6 5.6 0 0 1 735.299988 225.700006 A 5.6 5.6 0 0 1 729.699988 220.100006 A 5.6 5.6 0 0 1 735.299988 214.500006 A 5.6 5.6 0 0 1 740.899988 220.100006 Z" class="st4" style="fill: rgb(64, 64, 65);" transform="matrix(1, 0, 0, 1, -563.2258529663086, -108.38709259033203)"/><path d="M 740.899988 235.600006 A 5.6 5.6 0 0 1 735.299988 241.200006 A 5.6 5.6 0 0 1 729.699988 235.600006 A 5.6 5.6 0 0 1 735.299988 230.000006 A 5.6 5.6 0 0 1 740.899988 235.600006 Z" class="st4" style="fill: rgb(64, 64, 65);" transform="matrix(1, 0, 0, 1, -563.2258529663086, -108.38709259033203)"/><path d="M 740.899988 251.199997 A 5.6 5.6 0 0 1 735.299988 256.799997 A 5.6 5.6 0 0 1 729.699988 251.199997 A 5.6 5.6 0 0 1 735.299988 245.599997 A 5.6 5.6 0 0 1 740.899988 251.199997 Z" class="st4" style="fill: rgb(64, 64, 65);" transform="matrix(1, 0, 0, 1, -563.2258529663086, -108.38709259033203)"/><path d="M 740.899988 266.700012 A 5.6 5.6 0 0 1 735.299988 272.300012 A 5.6 5.6 0 0 1 729.699988 266.700012 A 5.6 5.6 0 0 1 735.299988 261.100012 A 5.6 5.6 0 0 1 740.899988 266.700012 Z" class="st4" style="fill: rgb(64, 64, 65);" transform="matrix(1, 0, 0, 1, -563.2258529663086, -108.38709259033203)"/><path d="M 740.899988 282.200012 A 5.6 5.6 0 0 1 735.299988 287.800012 A 5.6 5.6 0 0 1 729.699988 282.200012 A 5.6 5.6 0 0 1 735.299988 276.600012 A 5.6 5.6 0 0 1 740.899988 282.200012 Z" class="st4" style="fill: rgb(64, 64, 65);" transform="matrix(1, 0, 0, 1, -563.2258529663086, -108.38709259033203)"/><path d="M 740.899988 297.700012 A 5.6 5.6 0 0 1 735.299988 303.300012 A 5.6 5.6 0 0 1 729.699988 297.700012 A 5.6 5.6 0 0 1 735.299988 292.100012 A 5.6 5.6 0 0 1 740.899988 297.700012 Z" class="st4" style="fill: rgb(64, 64, 65);" transform="matrix(1, 0, 0, 1, -563.2258529663086, -108.38709259033203)"/><path d="M 740.899988 313.299988 A 5.6 5.6 0 0 1 735.299988 318.899988 A 5.6 5.6 0 0 1 729.699988 313.299988 A 5.6 5.6 0 0 1 735.299988 307.699988 A 5.6 5.6 0 0 1 740.899988 313.299988 Z" class="st4" style="fill: rgb(64, 64, 65);" transform="matrix(1, 0, 0, 1, -563.2258529663086, -108.38709259033203)"/><path d="M 740.899988 328.799988 A 5.6 5.6 0 0 1 735.299988 334.399988 A 5.6 5.6 0 0 1 729.699988 328.799988 A 5.6 5.6 0 0 1 735.299988 323.199988 A 5.6 5.6 0 0 1 740.899988 328.799988 Z" class="st4" style="fill: rgb(64, 64, 65);" transform="matrix(1, 0, 0, 1, -563.2258529663086, -108.38709259033203)"/><path d="M 740.899988 344.299988 A 5.6 5.6 0 0 1 735.299988 349.899988 A 5.6 5.6 0 0 1 729.699988 344.299988 A 5.6 5.6 0 0 1 735.299988 338.699988 A 5.6 5.6 0 0 1 740.899988 344.299988 Z" class="st4" style="fill: rgb(64, 64, 65);" transform="matrix(1, 0, 0, 1, -563.2258529663086, -108.38709259033203)"/><path d="M 740.899988 359.899994 A 5.6 5.6 0 0 1 735.299988 365.499994 A 5.6 5.6 0 0 1 729.699988 359.899994 A 5.6 5.6 0 0 1 735.299988 354.299994 A 5.6 5.6 0 0 1 740.899988 359.899994 Z" class="st4" style="fill: rgb(64, 64, 65);" transform="matrix(1, 0, 0, 1, -563.2258529663086, -108.38709259033203)"/><path d="M 740.899988 375.399994 A 5.6 5.6 0 0 1 735.299988 380.999994 A 5.6 5.6 0 0 1 729.699988 375.399994 A 5.6 5.6 0 0 1 735.299988 369.799994 A 5.6 5.6 0 0 1 740.899988 375.399994 Z" class="st4" style="fill: rgb(64, 64, 65);" transform="matrix(1, 0, 0, 1, -563.2258529663086, -108.38709259033203)"/><path d="M 772.000024 204.600006 A 5.6 5.6 0 0 1 766.400024 210.200006 A 5.6 5.6 0 0 1 760.800025 204.600006 A 5.6 5.6 0 0 1 766.400024 199.000006 A 5.6 5.6 0 0 1 772.000024 204.600006 Z" class="st4" style="fill: rgb(64, 64, 65);" transform="matrix(1, 0, 0, 1, -563.2258529663086, -108.38709259033203)"/><path d="M 772.000024 220.100006 A 5.6 5.6 0 0 1 766.400024 225.700006 A 5.6 5.6 0 0 1 760.800025 220.100006 A 5.6 5.6 0 0 1 766.400024 214.500006 A 5.6 5.6 0 0 1 772.000024 220.100006 Z" class="st4" style="fill: rgb(64, 64, 65);" transform="matrix(1, 0, 0, 1, -563.2258529663086, -108.38709259033203)"/><path d="M 772.000024 235.600006 A 5.6 5.6 0 0 1 766.400024 241.200006 A 5.6 5.6 0 0 1 760.800025 235.600006 A 5.6 5.6 0 0 1 766.400024 230.000006 A 5.6 5.6 0 0 1 772.000024 235.600006 Z" class="st4" style="fill: rgb(64, 64, 65);" transform="matrix(1, 0, 0, 1, -563.2258529663086, -108.38709259033203)"/><path d="M 772.000024 251.199997 A 5.6 5.6 0 0 1 766.400024 256.799997 A 5.6 5.6 0 0 1 760.800025 251.199997 A 5.6 5.6 0 0 1 766.400024 245.599997 A 5.6 5.6 0 0 1 772.000024 251.199997 Z" class="st4" style="fill: rgb(64, 64, 65);" transform="matrix(1, 0, 0, 1, -563.2258529663086, -108.38709259033203)"/><path d="M 772.000024 266.700012 A 5.6 5.6 0 0 1 766.400024 272.300012 A 5.6 5.6 0 0 1 760.800025 266.700012 A 5.6 5.6 0 0 1 766.400024 261.100012 A 5.6 5.6 0 0 1 772.000024 266.700012 Z" class="st4" style="fill: rgb(64, 64, 65);" transform="matrix(1, 0, 0, 1, -563.2258529663086, -108.38709259033203)"/><path d="M 772.000024 282.200012 A 5.6 5.6 0 0 1 766.400024 287.800012 A 5.6 5.6 0 0 1 760.800025 282.200012 A 5.6 5.6 0 0 1 766.400024 276.600012 A 5.6 5.6 0 0 1 772.000024 282.200012 Z" class="st4" style="fill: rgb(64, 64, 65);" transform="matrix(1, 0, 0, 1, -563.2258529663086, -108.38709259033203)"/><path d="M 772.000024 297.700012 A 5.6 5.6 0 0 1 766.400024 303.300012 A 5.6 5.6 0 0 1 760.800025 297.700012 A 5.6 5.6 0 0 1 766.400024 292.100012 A 5.6 5.6 0 0 1 772.000024 297.700012 Z" class="st4" style="fill: rgb(64, 64, 65);" transform="matrix(1, 0, 0, 1, -563.2258529663086, -108.38709259033203)"/><path d="M 772.000024 313.299988 A 5.6 5.6 0 0 1 766.400024 318.899988 A 5.6 5.6 0 0 1 760.800025 313.299988 A 5.6 5.6 0 0 1 766.400024 307.699988 A 5.6 5.6 0 0 1 772.000024 313.299988 Z" class="st4" style="fill: rgb(64, 64, 65);" transform="matrix(1, 0, 0, 1, -563.2258529663086, -108.38709259033203)"/><path d="M 772.000024 328.799988 A 5.6 5.6 0 0 1 766.400024 334.399988 A 5.6 5.6 0 0 1 760.800025 328.799988 A 5.6 5.6 0 0 1 766.400024 323.199988 A 5.6 5.6 0 0 1 772.000024 328.799988 Z" class="st4" style="fill: rgb(64, 64, 65);" transform="matrix(1, 0, 0, 1, -563.2258529663086, -108.38709259033203)"/><path d="M 772.000024 344.299988 A 5.6 5.6 0 0 1 766.400024 349.899988 A 5.6 5.6 0 0 1 760.800025 344.299988 A 5.6 5.6 0 0 1 766.400024 338.699988 A 5.6 5.6 0 0 1 772.000024 344.299988 Z" class="st4" style="fill: rgb(64, 64, 65);" transform="matrix(1, 0, 0, 1, -563.2258529663086, -108.38709259033203)"/><path d="M 772.000024 359.899994 A 5.6 5.6 0 0 1 766.400024 365.499994 A 5.6 5.6 0 0 1 760.800025 359.899994 A 5.6 5.6 0 0 1 766.400024 354.299994 A 5.6 5.6 0 0 1 772.000024 359.899994 Z" class="st4" style="fill: rgb(64, 64, 65);" transform="matrix(1, 0, 0, 1, -563.2258529663086, -108.38709259033203)"/><path d="M 772.000024 375.399994 A 5.6 5.6 0 0 1 766.400024 380.999994 A 5.6 5.6 0 0 1 760.800025 375.399994 A 5.6 5.6 0 0 1 766.400024 369.799994 A 5.6 5.6 0 0 1 772.000024 375.399994 Z" class="st4" style="fill: rgb(64, 64, 65);" transform="matrix(1, 0, 0, 1, -563.2258529663086, -108.38709259033203)"/><path d="M 709.899988 204.600006 A 5.6 5.6 0 0 1 704.299988 210.200006 A 5.6 5.6 0 0 1 698.699988 204.600006 A 5.6 5.6 0 0 1 704.299988 199.000006 A 5.6 5.6 0 0 1 709.899988 204.600006 Z" class="st4" style="fill: rgb(64, 64, 65);" transform="matrix(1, 0, 0, 1, -563.2258529663086, -108.38709259033203)"/><path d="M 709.899988 220.100006 A 5.6 5.6 0 0 1 704.299988 225.700006 A 5.6 5.6 0 0 1 698.699988 220.100006 A 5.6 5.6 0 0 1 704.299988 214.500006 A 5.6 5.6 0 0 1 709.899988 220.100006 Z" class="st4" style="fill: rgb(64, 64, 65);" transform="matrix(1, 0, 0, 1, -563.2258529663086, -108.38709259033203)"/><path d="M 709.899988 235.600006 A 5.6 5.6 0 0 1 704.299988 241.200006 A 5.6 5.6 0 0 1 698.699988 235.600006 A 5.6 5.6 0 0 1 704.299988 230.000006 A 5.6 5.6 0 0 1 709.899988 235.600006 Z" class="st4" style="fill: rgb(64, 64, 65);" transform="matrix(1, 0, 0, 1, -563.2258529663086, -108.38709259033203)"/><path d="M 709.899988 251.199997 A 5.6 5.6 0 0 1 704.299988 256.799997 A 5.6 5.6 0 0 1 698.699988 251.199997 A 5.6 5.6 0 0 1 704.299988 245.599997 A 5.6 5.6 0 0 1 709.899988 251.199997 Z" class="st4" style="fill: rgb(64, 64, 65);" transform="matrix(1, 0, 0, 1, -563.2258529663086, -108.38709259033203)"/><path d="M 709.899988 266.700012 A 5.6 5.6 0 0 1 704.299988 272.300012 A 5.6 5.6 0 0 1 698.699988 266.700012 A 5.6 5.6 0 0 1 704.299988 261.100012 A 5.6 5.6 0 0 1 709.899988 266.700012 Z" class="st4" style="fill: rgb(64, 64, 65);" transform="matrix(1, 0, 0, 1, -563.2258529663086, -108.38709259033203)"/><path d="M 709.899988 282.200012 A 5.6 5.6 0 0 1 704.299988 287.800012 A 5.6 5.6 0 0 1 698.699988 282.200012 A 5.6 5.6 0 0 1 704.299988 276.600012 A 5.6 5.6 0 0 1 709.899988 282.200012 Z" class="st4" style="fill: rgb(64, 64, 65);" transform="matrix(1, 0, 0, 1, -563.2258529663086, -108.38709259033203)"/><path d="M 709.899988 297.700012 A 5.6 5.6 0 0 1 704.299988 303.300012 A 5.6 5.6 0 0 1 698.699988 297.700012 A 5.6 5.6 0 0 1 704.299988 292.100012 A 5.6 5.6 0 0 1 709.899988 297.700012 Z" class="st4" style="fill: rgb(64, 64, 65);" transform="matrix(1, 0, 0, 1, -563.2258529663086, -108.38709259033203)"/><path d="M 709.899988 313.299988 A 5.6 5.6 0 0 1 704.299988 318.899988 A 5.6 5.6 0 0 1 698.699988 313.299988 A 5.6 5.6 0 0 1 704.299988 307.699988 A 5.6 5.6 0 0 1 709.899988 313.299988 Z" class="st4" style="fill: rgb(64, 64, 65);" transform="matrix(1, 0, 0, 1, -563.2258529663086, -108.38709259033203)"/><path d="M 709.899988 328.799988 A 5.6 5.6 0 0 1 704.299988 334.399988 A 5.6 5.6 0 0 1 698.699988 328.799988 A 5.6 5.6 0 0 1 704.299988 323.199988 A 5.6 5.6 0 0 1 709.899988 328.799988 Z" class="st4" style="fill: rgb(64, 64, 65);" transform="matrix(1, 0, 0, 1, -563.2258529663086, -108.38709259033203)"/><path d="M 709.899988 344.299988 A 5.6 5.6 0 0 1 704.299988 349.899988 A 5.6 5.6 0 0 1 698.699988 344.299988 A 5.6 5.6 0 0 1 704.299988 338.699988 A 5.6 5.6 0 0 1 709.899988 344.299988 Z" class="st4" style="fill: rgb(64, 64, 65);" transform="matrix(1, 0, 0, 1, -563.2258529663086, -108.38709259033203)"/><path d="M 709.899988 359.899994 A 5.6 5.6 0 0 1 704.299988 365.499994 A 5.6 5.6 0 0 1 698.699988 359.899994 A 5.6 5.6 0 0 1 704.299988 354.299994 A 5.6 5.6 0 0 1 709.899988 359.899994 Z" class="st4" style="fill: rgb(64, 64, 65);" transform="matrix(1, 0, 0, 1, -563.2258529663086, -108.38709259033203)"/><path d="M 709.899988 375.399994 A 5.6 5.6 0 0 1 704.299988 380.999994 A 5.6 5.6 0 0 1 698.699988 375.399994 A 5.6 5.6 0 0 1 704.299988 369.799994 A 5.6 5.6 0 0 1 709.899988 375.399994 Z" class="st4" style="fill: rgb(64, 64, 65);" transform="matrix(1, 0, 0, 1, -563.2258529663086, -108.38709259033203)"/><path d="M 694.399988 220.100006 A 5.6 5.6 0 0 1 688.799988 225.700006 A 5.6 5.6 0 0 1 683.199988 220.100006 A 5.6 5.6 0 0 1 688.799988 214.500006 A 5.6 5.6 0 0 1 694.399988 220.100006 Z" class="st4" style="fill: rgb(64, 64, 65);" transform="matrix(1, 0, 0, 1, -563.2258529663086, -108.38709259033203)"/><path d="M 694.399988 235.600006 A 5.6 5.6 0 0 1 688.799988 241.200006 A 5.6 5.6 0 0 1 683.199988 235.600006 A 5.6 5.6 0 0 1 688.799988 230.000006 A 5.6 5.6 0 0 1 694.399988 235.600006 Z" class="st4" style="fill: rgb(64, 64, 65);" transform="matrix(1, 0, 0, 1, -563.2258529663086, -108.38709259033203)"/><path d="M 694.399988 251.199997 A 5.6 5.6 0 0 1 688.799988 256.799997 A 5.6 5.6 0 0 1 683.199988 251.199997 A 5.6 5.6 0 0 1 688.799988 245.599997 A 5.6 5.6 0 0 1 694.399988 251.199997 Z" class="st4" style="fill: rgb(64, 64, 65);" transform="matrix(1, 0, 0, 1, -563.2258529663086, -108.38709259033203)"/><path d="M 694.399988 266.700012 A 5.6 5.6 0 0 1 688.799988 272.300012 A 5.6 5.6 0 0 1 683.199988 266.700012 A 5.6 5.6 0 0 1 688.799988 261.100012 A 5.6 5.6 0 0 1 694.399988 266.700012 Z" class="st4" style="fill: rgb(64, 64, 65);" transform="matrix(1, 0, 0, 1, -563.2258529663086, -108.38709259033203)"/><path d="M 694.399988 282.200012 A 5.6 5.6 0 0 1 688.799988 287.800012 A 5.6 5.6 0 0 1 683.199988 282.200012 A 5.6 5.6 0 0 1 688.799988 276.600012 A 5.6 5.6 0 0 1 694.399988 282.200012 Z" class="st4" style="fill: rgb(64, 64, 65);" transform="matrix(1, 0, 0, 1, -563.2258529663086, -108.38709259033203)"/><path d="M 694.399988 297.700012 A 5.6 5.6 0 0 1 688.799988 303.300012 A 5.6 5.6 0 0 1 683.199988 297.700012 A 5.6 5.6 0 0 1 688.799988 292.100012 A 5.6 5.6 0 0 1 694.399988 297.700012 Z" class="st4" style="fill: rgb(64, 64, 65);" transform="matrix(1, 0, 0, 1, -563.2258529663086, -108.38709259033203)"/><path d="M 694.399988 313.299988 A 5.6 5.6 0 0 1 688.799988 318.899988 A 5.6 5.6 0 0 1 683.199988 313.299988 A 5.6 5.6 0 0 1 688.799988 307.699988 A 5.6 5.6 0 0 1 694.399988 313.299988 Z" class="st4" style="fill: rgb(64, 64, 65);" transform="matrix(1, 0, 0, 1, -563.2258529663086, -108.38709259033203)"/><path d="M 694.399988 328.799988 A 5.6 5.6 0 0 1 688.799988 334.399988 A 5.6 5.6 0 0 1 683.199988 328.799988 A 5.6 5.6 0 0 1 688.799988 323.199988 A 5.6 5.6 0 0 1 694.399988 328.799988 Z" class="st4" style="fill: rgb(64, 64, 65);" transform="matrix(1, 0, 0, 1, -563.2258529663086, -108.38709259033203)"/><path d="M 694.399988 344.299988 A 5.6 5.6 0 0 1 688.799988 349.899988 A 5.6 5.6 0 0 1 683.199988 344.299988 A 5.6 5.6 0 0 1 688.799988 338.699988 A 5.6 5.6 0 0 1 694.399988 344.299988 Z" class="st4" style="fill: rgb(64, 64, 65);" transform="matrix(1, 0, 0, 1, -563.2258529663086, -108.38709259033203)"/><path d="M 694.399988 359.899994 A 5.6 5.6 0 0 1 688.799988 365.499994 A 5.6 5.6 0 0 1 683.199988 359.899994 A 5.6 5.6 0 0 1 688.799988 354.299994 A 5.6 5.6 0 0 1 694.399988 359.899994 Z" class="st4" style="fill: rgb(64, 64, 65);" transform="matrix(1, 0, 0, 1, -563.2258529663086, -108.38709259033203)"/><path d="M 787.500024 220.100006 A 5.6 5.6 0 0 1 781.900024 225.700006 A 5.6 5.6 0 0 1 776.300025 220.100006 A 5.6 5.6 0 0 1 781.900024 214.500006 A 5.6 5.6 0 0 1 787.500024 220.100006 Z" class="st4" style="fill: rgb(64, 64, 65);" transform="matrix(1, 0, 0, 1, -563.2258529663086, -108.38709259033203)"/><path d="M 787.500024 235.600006 A 5.6 5.6 0 0 1 781.900024 241.200006 A 5.6 5.6 0 0 1 776.300025 235.600006 A 5.6 5.6 0 0 1 781.900024 230.000006 A 5.6 5.6 0 0 1 787.500024 235.600006 Z" class="st4" style="fill: rgb(64, 64, 65);" transform="matrix(1, 0, 0, 1, -563.2258529663086, -108.38709259033203)"/><path d="M 787.500024 251.199997 A 5.6 5.6 0 0 1 781.900024 256.799997 A 5.6 5.6 0 0 1 776.300025 251.199997 A 5.6 5.6 0 0 1 781.900024 245.599997 A 5.6 5.6 0 0 1 787.500024 251.199997 Z" class="st4" style="fill: rgb(64, 64, 65);" transform="matrix(1, 0, 0, 1, -563.2258529663086, -108.38709259033203)"/><path d="M 787.500024 266.700012 A 5.6 5.6 0 0 1 781.900024 272.300012 A 5.6 5.6 0 0 1 776.300025 266.700012 A 5.6 5.6 0 0 1 781.900024 261.100012 A 5.6 5.6 0 0 1 787.500024 266.700012 Z" class="st4" style="fill: rgb(64, 64, 65);" transform="matrix(1, 0, 0, 1, -563.2258529663086, -108.38709259033203)"/><path d="M 787.500024 282.200012 A 5.6 5.6 0 0 1 781.900024 287.800012 A 5.6 5.6 0 0 1 776.300025 282.200012 A 5.6 5.6 0 0 1 781.900024 276.600012 A 5.6 5.6 0 0 1 787.500024 282.200012 Z" class="st4" style="fill: rgb(64, 64, 65);" transform="matrix(1, 0, 0, 1, -563.2258529663086, -108.38709259033203)"/><path d="M 787.500024 297.700012 A 5.6 5.6 0 0 1 781.900024 303.300012 A 5.6 5.6 0 0 1 776.300025 297.700012 A 5.6 5.6 0 0 1 781.900024 292.100012 A 5.6 5.6 0 0 1 787.500024 297.700012 Z" class="st4" style="fill: rgb(64, 64, 65);" transform="matrix(1, 0, 0, 1, -563.2258529663086, -108.38709259033203)"/><path d="M 787.500024 313.299988 A 5.6 5.6 0 0 1 781.900024 318.899988 A 5.6 5.6 0 0 1 776.300025 313.299988 A 5.6 5.6 0 0 1 781.900024 307.699988 A 5.6 5.6 0 0 1 787.500024 313.299988 Z" class="st4" style="fill: rgb(64, 64, 65);" transform="matrix(1, 0, 0, 1, -563.2258529663086, -108.38709259033203)"/><path d="M 787.500024 328.799988 A 5.6 5.6 0 0 1 781.900024 334.399988 A 5.6 5.6 0 0 1 776.300025 328.799988 A 5.6 5.6 0 0 1 781.900024 323.199988 A 5.6 5.6 0 0 1 787.500024 328.799988 Z" class="st4" style="fill: rgb(64, 64, 65);" transform="matrix(1, 0, 0, 1, -563.2258529663086, -108.38709259033203)"/><path d="M 787.500024 344.299988 A 5.6 5.6 0 0 1 781.900024 349.899988 A 5.6 5.6 0 0 1 776.300025 344.299988 A 5.6 5.6 0 0 1 781.900024 338.699988 A 5.6 5.6 0 0 1 787.500024 344.299988 Z" class="st4" style="fill: rgb(64, 64, 65);" transform="matrix(1, 0, 0, 1, -563.2258529663086, -108.38709259033203)"/><path d="M 787.500024 359.899994 A 5.6 5.6 0 0 1 781.900024 365.499994 A 5.6 5.6 0 0 1 776.300025 359.899994 A 5.6 5.6 0 0 1 781.900024 354.299994 A 5.6 5.6 0 0 1 787.500024 359.899994 Z" class="st4" style="fill: rgb(64, 64, 65);" transform="matrix(1, 0, 0, 1, -563.2258529663086, -108.38709259033203)"/><path d="M 740.899988 390.899994 A 5.6 5.6 0 0 1 735.299988 396.499994 A 5.6 5.6 0 0 1 729.699988 390.899994 A 5.6 5.6 0 0 1 735.299988 385.299994 A 5.6 5.6 0 0 1 740.899988 390.899994 Z" class="st4" style="fill: rgb(64, 64, 65);" transform="matrix(1, 0, 0, 1, -563.2258529663086, -108.38709259033203)"/><path d="M 756.899988 199 A 5.6 5.6 0 0 1 751.299988 204.6 A 5.6 5.6 0 0 1 745.699988 199 A 5.6 5.6 0 0 1 751.299988 193.4 A 5.6 5.6 0 0 1 756.899988 199 Z" class="st4" style="fill: rgb(64, 64, 65);" transform="matrix(1, 0, 0, 1, -563.2258529663086, -108.38709259033203)"/><path d="M 756.899988 214.5 A 5.6 5.6 0 0 1 751.299988 220.1 A 5.6 5.6 0 0 1 745.699988 214.5 A 5.6 5.6 0 0 1 751.299988 208.9 A 5.6 5.6 0 0 1 756.899988 214.5 Z" class="st4" style="fill: rgb(64, 64, 65);" transform="matrix(1, 0, 0, 1, -563.2258529663086, -108.38709259033203)"/><path d="M 756.899988 230 A 5.6 5.6 0 0 1 751.299988 235.6 A 5.6 5.6 0 0 1 745.699988 230 A 5.6 5.6 0 0 1 751.299988 224.4 A 5.6 5.6 0 0 1 756.899988 230 Z" class="st4" style="fill: rgb(64, 64, 65);" transform="matrix(1, 0, 0, 1, -563.2258529663086, -108.38709259033203)"/><path d="M 756.899988 245.5 A 5.6 5.6 0 0 1 751.299988 251.1 A 5.6 5.6 0 0 1 745.699988 245.5 A 5.6 5.6 0 0 1 751.299988 239.9 A 5.6 5.6 0 0 1 756.899988 245.5 Z" class="st4" style="fill: rgb(64, 64, 65);" transform="matrix(1, 0, 0, 1, -563.2258529663086, -108.38709259033203)"/><path d="M 756.899988 261.100006 A 5.6 5.6 0 0 1 751.299988 266.700006 A 5.6 5.6 0 0 1 745.699988 261.100006 A 5.6 5.6 0 0 1 751.299988 255.500006 A 5.6 5.6 0 0 1 756.899988 261.100006 Z" class="st4" style="fill: rgb(64, 64, 65);" transform="matrix(1, 0, 0, 1, -563.2258529663086, -108.38709259033203)"/><path d="M 756.899988 276.600006 A 5.6 5.6 0 0 1 751.299988 282.200006 A 5.6 5.6 0 0 1 745.699988 276.600006 A 5.6 5.6 0 0 1 751.299988 271.000006 A 5.6 5.6 0 0 1 756.899988 276.600006 Z" class="st4" style="fill: rgb(64, 64, 65);" transform="matrix(1, 0, 0, 1, -563.2258529663086, -108.38709259033203)"/><path d="M 756.899988 292.100006 A 5.6 5.6 0 0 1 751.299988 297.700006 A 5.6 5.6 0 0 1 745.699988 292.100006 A 5.6 5.6 0 0 1 751.299988 286.500006 A 5.6 5.6 0 0 1 756.899988 292.100006 Z" class="st4" style="fill: rgb(64, 64, 65);" transform="matrix(1, 0, 0, 1, -563.2258529663086, -108.38709259033203)"/><path d="M 756.899988 307.600006 A 5.6 5.6 0 0 1 751.299988 313.200006 A 5.6 5.6 0 0 1 745.699988 307.600006 A 5.6 5.6 0 0 1 751.299988 302.000006 A 5.6 5.6 0 0 1 756.899988 307.600006 Z" class="st4" style="fill: rgb(64, 64, 65);" transform="matrix(1, 0, 0, 1, -563.2258529663086, -108.38709259033203)"/><path d="M 756.899988 323.200012 A 5.6 5.6 0 0 1 751.299988 328.800012 A 5.6 5.6 0 0 1 745.699988 323.200012 A 5.6 5.6 0 0 1 751.299988 317.600012 A 5.6 5.6 0 0 1 756.899988 323.200012 Z" class="st4" style="fill: rgb(64, 64, 65);" transform="matrix(1, 0, 0, 1, -563.2258529663086, -108.38709259033203)"/><path d="M 756.899988 338.700012 A 5.6 5.6 0 0 1 751.299988 344.300012 A 5.6 5.6 0 0 1 745.699988 338.700012 A 5.6 5.6 0 0 1 751.299988 333.100012 A 5.6 5.6 0 0 1 756.899988 338.700012 Z" class="st4" style="fill: rgb(64, 64, 65);" transform="matrix(1, 0, 0, 1, -563.2258529663086, -108.38709259033203)"/><path d="M 756.899988 354.200012 A 5.6 5.6 0 0 1 751.299988 359.800012 A 5.6 5.6 0 0 1 745.699988 354.200012 A 5.6 5.6 0 0 1 751.299988 348.600012 A 5.6 5.6 0 0 1 756.899988 354.200012 Z" class="st4" style="fill: rgb(64, 64, 65);" transform="matrix(1, 0, 0, 1, -563.2258529663086, -108.38709259033203)"/><path d="M 756.899988 369.799988 A 5.6 5.6 0 0 1 751.299988 375.399988 A 5.6 5.6 0 0 1 745.699988 369.799988 A 5.6 5.6 0 0 1 751.299988 364.199988 A 5.6 5.6 0 0 1 756.899988 369.799988 Z" class="st4" style="fill: rgb(64, 64, 65);" transform="matrix(1, 0, 0, 1, -563.2258529663086, -108.38709259033203)"/><path d="M 756.899988 385.299988 A 5.6 5.6 0 0 1 751.299988 390.899988 A 5.6 5.6 0 0 1 745.699988 385.299988 A 5.6 5.6 0 0 1 751.299988 379.699988 A 5.6 5.6 0 0 1 756.899988 385.299988 Z" class="st4" style="fill: rgb(64, 64, 65);" transform="matrix(1, 0, 0, 1, -563.2258529663086, -108.38709259033203)"/><path d="M 725.800012 199 A 5.6 5.6 0 0 1 720.200012 204.6 A 5.6 5.6 0 0 1 714.600012 199 A 5.6 5.6 0 0 1 720.200012 193.4 A 5.6 5.6 0 0 1 725.800012 199 Z" class="st4" style="fill: rgb(64, 64, 65);" transform="matrix(1, 0, 0, 1, -563.2258529663086, -108.38709259033203)"/><path d="M 725.800012 214.5 A 5.6 5.6 0 0 1 720.200012 220.1 A 5.6 5.6 0 0 1 714.600012 214.5 A 5.6 5.6 0 0 1 720.200012 208.9 A 5.6 5.6 0 0 1 725.800012 214.5 Z" class="st4" style="fill: rgb(64, 64, 65);" transform="matrix(1, 0, 0, 1, -563.2258529663086, -108.38709259033203)"/><path d="M 725.800012 230 A 5.6 5.6 0 0 1 720.200012 235.6 A 5.6 5.6 0 0 1 714.600012 230 A 5.6 5.6 0 0 1 720.200012 224.4 A 5.6 5.6 0 0 1 725.800012 230 Z" class="st4" style="fill: rgb(64, 64, 65);" transform="matrix(1, 0, 0, 1, -563.2258529663086, -108.38709259033203)"/><path d="M 725.800012 245.5 A 5.6 5.6 0 0 1 720.200012 251.1 A 5.6 5.6 0 0 1 714.600012 245.5 A 5.6 5.6 0 0 1 720.200012 239.9 A 5.6 5.6 0 0 1 725.800012 245.5 Z" class="st4" style="fill: rgb(64, 64, 65);" transform="matrix(1, 0, 0, 1, -563.2258529663086, -108.38709259033203)"/><path d="M 725.800012 261.100006 A 5.6 5.6 0 0 1 720.200012 266.700006 A 5.6 5.6 0 0 1 714.600012 261.100006 A 5.6 5.6 0 0 1 720.200012 255.500006 A 5.6 5.6 0 0 1 725.800012 261.100006 Z" class="st4" style="fill: rgb(64, 64, 65);" transform="matrix(1, 0, 0, 1, -563.2258529663086, -108.38709259033203)"/><path d="M 725.800012 276.600006 A 5.6 5.6 0 0 1 720.200012 282.200006 A 5.6 5.6 0 0 1 714.600012 276.600006 A 5.6 5.6 0 0 1 720.200012 271.000006 A 5.6 5.6 0 0 1 725.800012 276.600006 Z" class="st4" style="fill: rgb(64, 64, 65);" transform="matrix(1, 0, 0, 1, -563.2258529663086, -108.38709259033203)"/><path d="M 725.800012 292.100006 A 5.6 5.6 0 0 1 720.200012 297.700006 A 5.6 5.6 0 0 1 714.600012 292.100006 A 5.6 5.6 0 0 1 720.200012 286.500006 A 5.6 5.6 0 0 1 725.800012 292.100006 Z" class="st4" style="fill: rgb(64, 64, 65);" transform="matrix(1, 0, 0, 1, -563.2258529663086, -108.38709259033203)"/><path d="M 725.800012 307.600006 A 5.6 5.6 0 0 1 720.200012 313.200006 A 5.6 5.6 0 0 1 714.600012 307.600006 A 5.6 5.6 0 0 1 720.200012 302.000006 A 5.6 5.6 0 0 1 725.800012 307.600006 Z" class="st4" style="fill: rgb(64, 64, 65);" transform="matrix(1, 0, 0, 1, -563.2258529663086, -108.38709259033203)"/><path d="M 725.800012 323.200012 A 5.6 5.6 0 0 1 720.200012 328.800012 A 5.6 5.6 0 0 1 714.600012 323.200012 A 5.6 5.6 0 0 1 720.200012 317.600012 A 5.6 5.6 0 0 1 725.800012 323.200012 Z" class="st4" style="fill: rgb(64, 64, 65);" transform="matrix(1, 0, 0, 1, -563.2258529663086, -108.38709259033203)"/><path d="M 725.800012 338.700012 A 5.6 5.6 0 0 1 720.200012 344.300012 A 5.6 5.6 0 0 1 714.600012 338.700012 A 5.6 5.6 0 0 1 720.200012 333.100012 A 5.6 5.6 0 0 1 725.800012 338.700012 Z" class="st4" style="fill: rgb(64, 64, 65);" transform="matrix(1, 0, 0, 1, -563.2258529663086, -108.38709259033203)"/><path d="M 725.800012 354.200012 A 5.6 5.6 0 0 1 720.200012 359.800012 A 5.6 5.6 0 0 1 714.600012 354.200012 A 5.6 5.6 0 0 1 720.200012 348.600012 A 5.6 5.6 0 0 1 725.800012 354.200012 Z" class="st4" style="fill: rgb(64, 64, 65);" transform="matrix(1, 0, 0, 1, -563.2258529663086, -108.38709259033203)"/><path d="M 725.800012 369.799988 A 5.6 5.6 0 0 1 720.200012 375.399988 A 5.6 5.6 0 0 1 714.600012 369.799988 A 5.6 5.6 0 0 1 720.200012 364.199988 A 5.6 5.6 0 0 1 725.800012 369.799988 Z" class="st4" style="fill: rgb(64, 64, 65);" transform="matrix(1, 0, 0, 1, -563.2258529663086, -108.38709259033203)"/><path d="M 725.800012 385.299988 A 5.6 5.6 0 0 1 720.200012 390.899988 A 5.6 5.6 0 0 1 714.600012 385.299988 A 5.6 5.6 0 0 1 720.200012 379.699988 A 5.6 5.6 0 0 1 725.800012 385.299988 Z" class="st4" style="fill: rgb(64, 64, 65);" transform="matrix(1, 0, 0, 1, -563.2258529663086, -108.38709259033203)"/>
</svg>