<svg width='200' height='200' fill="#000000" xmlns="http://www.w3.org/2000/svg" xmlns:xlink="http://www.w3.org/1999/xlink" version="1.1" x="0px" y="0px" viewBox="0 0 100 100" enable-background="new 0 0 100 100" xml:space="preserve"><path d="M50.9718323,73.6216583c-0.8310547-0.5419922-1.9101563-0.5341797-2.7470703,0.0195313  c-0.0314331,0.020752-0.0646362,0.0379639-0.0961914,0.0585327c-0.4362183-0.2653809-0.878418-0.515686-1.3242798-0.7563477  c7.3761597-4.1174927,12.5818481-11.7600136,13.2075806-20.6957436c0.0556641-0.7949219-0.5205078-1.4951172-1.3125-1.5927734  c-19.0854492-2.3598633-25.5581055-9.1645508-27.7172852-13.0107422c-0.2895508-0.515625-0.8525391-0.8164063-1.4443359-0.7592773  c-0.5888672,0.0537109-1.0917969,0.4482422-1.2832031,1.0083008c-1.1015625,3.2207031-4.9619141,8.9912109-18.4365234,11.453125  c-0.7216797,0.1318359-1.2421875,0.7661133-1.2304688,1.5c0.1516113,9.4578857,5.4918213,17.7169838,13.2557974,22.0733681  c-0.447876,0.2407227-0.8918457,0.4915161-1.3299561,0.7572021c-0.031189-0.0204468-0.0641479-0.0375366-0.0952759-0.0581055  c-0.8388672-0.5546875-1.9169922-0.5644531-2.7480469-0.0214844C9.7828684,78.7476349,3.6915596,87.3335724,0.5187079,97.7730255  c-0.2412109,0.7929688,0.2060547,1.6308594,0.9990234,1.8720703c0.1450195,0.0439453,0.2919922,0.0644531,0.4365234,0.0644531  c0.6430665,0,1.2377931-0.4169922,1.4345704-1.0634766c0.0447388-0.1471558,0.0956421-0.2901611,0.1416016-0.4365234  c0.3151855-1.0042725,0.6555784-1.9916382,1.0267332-2.9561157c3.1186523-8.1036987,8.1687622-14.7462769,14.47229-18.9589233  c0.0303345,0.0195923,0.0622559,0.0357666,0.0926514,0.0552368c0.4805298,0.3075562,0.9702759,0.5968628,1.4659424,0.8735352  c4.1950684,2.3422241,8.9050293,3.5770874,13.7504883,3.5770874c4.8322144,0,9.5282593-1.2270508,13.7103271-3.5535278  c0.4960938-0.2759399,0.986145-0.5648193,1.467041-0.8717041c0.0310059-0.0197754,0.0636597-0.0363159,0.0946045-0.0562134  c6.2839966,4.2131348,11.3210449,10.8445435,14.4332275,18.9284058c0.3720093,0.9664307,0.7129517,1.9558716,1.0287476,2.9622192  c0.0459595,0.1463623,0.0968018,0.2893677,0.1415405,0.4365234c0.2421875,0.7919922,1.0791016,1.2382813,1.8720703,0.9990234  c0.7919922-0.2412109,1.2392578-1.0791016,0.9990234-1.8720703C64.9181213,87.3540802,58.8409729,78.7769318,50.9718323,73.6216583z   M34.3385315,77.8003693c-3.7522583,0-7.4146729-0.8268433-10.7649536-2.4081421  c0.5870361-0.3049316,1.1848755-0.5767822,1.7875977-0.8323364c2.8010254,1.0548096,5.8248901,1.6369629,8.973938,1.6369629  c3.133606,0,6.1461182-0.5767212,8.9404297-1.6213989c0.6032104,0.256897,1.201355,0.5304565,1.7888184,0.836853  C41.7270813,76.9807892,38.0781555,77.8003693,34.3385315,77.8003693z M56.8771057,53.4409904  c-1.0735474,8.0906372-6.4241333,14.7924843-13.6168823,17.8932533c-0.7171631,0.3092041-1.4498291,0.585022-2.201416,0.8200073  c-1.1522217,0.3601685-2.3416748,0.6240845-3.5606079,0.7965088c-1.0374146,0.1467896-2.0889282,0.2460938-3.1630859,0.2460938  c-1.0837402,0-2.1433716-0.1027832-3.1887817-0.2523804c-1.2220459-0.1749268-2.416626-0.4351196-3.5704956-0.7989502  c-0.7496338-0.2363281-1.4795532-0.5154419-2.194458-0.8257446c-7.6038208-3.2996216-13.1239614-10.6325111-13.7396231-19.2723427  c11.140624-2.3032227,16.078125-6.9555664,18.265625-10.6362305C33.5914612,46.0943108,41.2003479,51.2573967,56.8771057,53.4409904  z M4.6671453,84.7759552c0.8286133,0,1.5-0.671875,1.5-1.5V46.7837639c0-16.2094727,12.6210938-29.3964844,28.1342773-29.3964844  c3.673645,0,7.1814575,0.7471924,10.4015503,2.0912476c-0.180542,0.0651855-0.347229,0.1358643-0.494812,0.2134399  c-1.3969727,0.7348633-2.4345703,1.9550781-2.921875,3.4360352c-0.4931641,1.4990234-0.3652344,3.0839844,0.3598633,4.4633789  c0.7260742,1.3789063,1.9594727,2.3818359,3.4741211,2.8242188c0.5493164,0.1606445,1.1118164,0.2402344,1.6723633,0.2402344  c0.9672852,0,1.9301758-0.2368164,2.8139648-0.7021484c1.2262573-0.6451416,2.774231-2.5430908,4.1001587-4.4241943  c5.3718262,5.3568115,8.7289429,12.9011841,8.7289429,21.2542725v36.4921913c0,0.828125,0.671875,1.5,1.5,1.5s1.5-0.671875,1.5-1.5  V46.7837639c0-9.4015503-3.8720093-17.8771362-10.0400391-23.8005981c0.4989014-0.7947998,0.8760986-1.4324341,1.0585938-1.7457886  c0.2607422-0.4467773,0.2724609-0.9956055,0.03125-1.453125c-0.2402344-0.4575195-0.6992188-0.7587891-1.2148438-0.7973633  c-0.7224121-0.053894-2.9442749-0.2001953-5.2727051-0.1636353c-4.6123047-2.8143311-9.9744263-4.4359732-15.6965332-4.4359732  c-17.1674805,0-31.1342773,14.5332022-31.1342773,32.3964844v36.4921913  C3.1671455,84.1040802,3.8385322,84.7759552,4.6671453,84.7759552z M51.4535828,23.5057487  c-1.3050537,1.8814087-2.569519,3.4386597-3.2434692,3.7931519l-0.0004883,0.0004883  c-0.7041016,0.3696289-1.5039063,0.453125-2.2475586,0.2368164c-0.7275391-0.2124023-1.3173828-0.6889648-1.6606445-1.3417969  c-0.34375-0.652832-0.4023438-1.4091797-0.1655273-2.1289063c0.2426758-0.7373047,0.7641602-1.3476563,1.46875-1.7182617  c0.5331421-0.2805786,1.8948364-0.43927,3.5718994-0.4985962c0.5116577-0.0180664,1.050293-0.027771,1.6068115-0.027771  c0.5820313,0,1.1796875,0.0092773,1.7783203,0.027832C52.1972351,22.4155998,51.8239441,22.9718132,51.4535828,23.5057487z   M99.1730042,54.4009514L86.8106995,36.7686272c-0.5478516-0.7832031-1.2119141-1.4863281-1.9736328-2.0898438  c-0.1679688-0.1328125-0.3623047-0.2285156-0.5703125-0.2797852l-4.5144653-1.121582  c-0.0662231-0.1539917-0.1484985-0.3036499-0.24823-0.4462891l-1.8310547-2.6098633  c-0.3828125-0.5473633-0.9560547-0.9125977-1.6142578-1.0283203c-0.6630859-0.1147461-1.3212891,0.0327148-1.8681641,0.4155273  l-0.0192871,0.0135498l-7.8820801-9.9862061c-0.7568359-0.9599609-2.171875-1.1337891-3.2236328-0.3945313l-1.5957031,1.1186523  c-1.0527344,0.7382813-1.3720703,2.1293945-0.7265625,3.1665039l6.7182007,10.7998047l-0.0160522,0.0112305  c-0.546875,0.3833008-0.9111328,0.9560547-1.0273438,1.6132813c-0.1162109,0.6582031,0.0322266,1.3222656,0.4150391,1.8681641  l1.784668,2.5460815c-0.0178223,0.0888062-0.0350952,0.1781006-0.0366211,0.2703247l-0.0761719,4.940918  c-0.0019531,0.1689453,0.0234375,0.3374023,0.0771484,0.4975586c0.3076172,0.921875,0.7421875,1.7861328,1.2900391,2.5673828  l12.3623047,17.6337929c0.3154297,0.4511719,0.7978516,0.7529297,1.3583984,0.8515625  c0.1298828,0.0224609,0.2626953,0.0341797,0.3964844,0.0341797c0.5136719,0,1.0361328-0.1669922,1.4804688-0.4785156  l12.9824219-9.1005898C99.5597229,56.8032951,99.8761292,55.4068108,99.1730042,54.4009514z M71.5089417,45.3545647  l0.0605469-3.9077148l7.4902344-5.2504883l4.1533203,1.0317383c0.4335938,0.3754883,0.8164063,0.7988281,1.140625,1.2617188  l11.8974609,16.9707031l-12.0253906,8.4296875L72.3282776,46.9185295  C71.9923401,46.4395256,71.7169495,45.914135,71.5089417,45.3545647z M76.0575256,33.1424065l0.7023926,1.001709  l-5.9267578,4.1547852l-0.7018433-1.00177l-0.5540161-0.7907104l5.9257813-4.1547852L76.0575256,33.1424065z M69.9214172,32.6015739  L63.639801,22.5025139l0.7011719-0.4916992l7.3696899,9.3363037L69.9214172,32.6015739z M58.9796448,17.2910881  c0.171875,0.0649414,0.3505859,0.0961914,0.5283203,0.0961914c0.3828125,0,0.7597656-0.1469727,1.0449219-0.4238281  c0.4169922-0.4047852,0.5625-1.0136709,0.3740234-1.5629873c-0.3466797-1.0097656-3.4560547-9.9350586-5.8925781-12.4443359  c-2.8945313-2.9819336-6.9887695-3.5410156-9.3212891-1.2773439c-2.3325195,2.2651367-1.8925781,6.3740234,1.0014648,9.3544922  C49.1505432,13.5430422,57.9806213,16.9146233,58.9796448,17.2910881z M47.802887,3.8311281  c0.3745117-0.3637695,0.8959961-0.5361328,1.4863281-0.5361328c1.125,0,2.5009766,0.6264648,3.5927734,1.7509766  c1.1054688,1.1386719,2.7724609,4.8837891,4.0576172,8.1962891c-3.2724609-1.3823242-6.9667969-3.1591797-8.0722656-4.2988281  c0,0,0,0-0.0009766,0C47.2018127,7.2290773,46.7149963,4.8877687,47.802887,3.8311281z"></path></svg>