<?xml version="1.0" encoding="utf-8"?>
<svg id="master-artboard" viewBox="0 0 503.8710021972656 451.6129455566406" version="1.1" xmlns="http://www.w3.org/2000/svg" x="0px" y="0px" style="enable-background:new 0 0 1400 980;" width="503.8710021972656px" height="451.6129455566406px"><rect id="ee-background" x="0" y="0" width="503.8710021972656" height="451.6129455566406" style="fill: white; fill-opacity: 0; pointer-events: none;"/>



<path class="st1" d="M475.3,534.3c-1.1-1.9-3-3.2-5.4-3.6l-14.7-2.1l-11.7-1.7h0l-4.5-0.6c-5.7-0.8-11.1,3.2-11.8,9l-22,180.3&#10;&#9;&#9;l-21.9-189c-0.4-3.9-4-6.6-7.8-6.1l0,0h0l-27.3,3.8l-7.7,1.1h0l-3.8,0.5c-3.8,0.5-6.5,4.1-5.9,8l52.7,329.7&#10;&#9;&#9;c0.7,4.6,3.6,8.4,7.5,10.4c1.1,1.3,2.4,2.4,3.9,3.3c1.5,1,3.1,1.7,5,1.9l0.8,0.1l0,0l3.7,0.5l6.1,0.9c6.5,0.9,12.6-3.5,13.6-10&#10;&#9;&#9;l54.2-326.3C478.9,540.6,477.7,536.9,475.3,534.3z" style="fill: rgb(226, 170, 186);" transform="matrix(1, 0, 0, 1, -129.67742919921875, -439.3548583984375)"/><path class="st2" d="M393.1,854.9l-20.2,2.8c-7.7,1.1-14.8-4.2-16-11.8L304.2,516c-0.6-3.8,2-7.4,5.9-8l38.7-5.3&#10;&#9;&#9;&#9;&#9;c1.8-0.2,3.5,1,3.7,2.8L393.1,854.9z" style="fill: rgb(229, 60, 112);" transform="matrix(1, 0, 0, 1, -129.67742919921875, -439.3548583984375)"/><path class="st8" d="M396.9,854.3l-21.7,3c-6.8,0.9-13.1-3.7-14.2-10.5l-53-331.3c-0.6-3.8,2-7.4,5.9-8l35-4.8&#10;&#9;&#9;&#9;&#9;c3.8-0.5,7.4,2.2,7.8,6.1L396.9,854.3z" style="fill: rgb(240, 105, 143);" transform="matrix(1, 0, 0, 1, -129.67742919921875, -439.3548583984375)"/><path class="st2" d="M358.5,598.2l-30.8,4.2c-2.1,0.3-4.1-1.2-4.5-3.3L310.6,517c-0.3-2.2,1.2-4.2,3.4-4.5l33.5-4.6&#10;&#9;&#9;&#9;&#9;c2.2-0.3,4.2,1.3,4.5,3.4l10,82.5C362.2,595.9,360.7,597.9,358.5,598.2z" style="fill: rgb(229, 60, 112);" transform="matrix(1, 0, 0, 1, -129.67742919921875, -439.3548583984375)"/><path class="st9" d="M383.6,862.9l-9.4-1.4c-8.5-1.2-14.4-9-13.4-17.5l39.9-326.5c0.7-5.8,6-9.8,11.8-9l30.9,4.5&#10;&#9;&#9;&#9;&#9;c4.2,0.6,7,4.5,6.3,8.7l-55.4,333.4C393.5,860.2,388.8,863.6,383.6,862.9z" style="fill: rgb(235, 82, 127);" transform="matrix(1, 0, 0, 1, -129.67742919921875, -439.3548583984375)"/><path class="st6" d="M383.9,862.9l-10.5-1.5c-6.5-0.9-11.1-6.9-10.3-13.4l40.2-328.3c0.8-6.7,7-11.4,13.7-10.5l24.6,3.5&#10;&#9;&#9;&#9;&#9;c6.7,1,11.3,7.2,10.2,13.9L397.5,853C396.5,859.5,390.4,863.9,383.9,862.9z" style="fill: rgb(251, 150, 173);" transform="matrix(1, 0, 0, 1, -129.67742919921875, -439.3548583984375)"/><path class="st8" d="M405.2,704.2l-3.2-0.5c-3.8-0.6-6.5-4.1-6-8l2.9-20.2c0.6-3.8,4.1-6.5,8-6l3.2,0.5c3.8,0.6,6.5,4.1,6,8&#10;&#9;&#9;&#9;&#9;l-2.9,20.2C412.7,702.1,409.1,704.8,405.2,704.2z" style="fill: rgb(240, 105, 143);" transform="matrix(1, 0, 0, 1, -129.67742919921875, -439.3548583984375)"/><path class="st7" d="M396.9,690.3l19.3-14.4c-0.2-1.6-0.9-3-2-4l-16.4,12.3L396.9,690.3z" style="fill: rgb(255, 255, 255);" transform="matrix(1, 0, 0, 1, -129.67742919921875, -439.3548583984375)"/><path class="st7" d="M415.8,680.4L396.2,695l-0.2,1.2c0,0.3-0.1,0.6-0.1,0.8l19.5-14.6L415.8,680.4z" style="fill: rgb(255, 255, 255);" transform="matrix(1, 0, 0, 1, -129.67742919921875, -439.3548583984375)"/><path class="st10" d="M359.7,597l-30.8,4.2c-2.1,0.3-4.1-1.2-4.5-3.3l-12.7-82.1c-0.3-2.2,1.2-4.2,3.4-4.5l33.5-4.6&#10;&#9;&#9;&#9;&#9;c2.2-0.3,4.2,1.3,4.5,3.4l10,82.5C363.4,594.7,361.9,596.7,359.7,597z" style="fill: rgb(219, 219, 219);" transform="matrix(1, 0, 0, 1, -129.67742919921875, -439.3548583984375)"/><path class="st6" d="M362.7,652.5l-21.8,3.1c-1.8,0.3-3.6-1-3.8-2.9l-0.9-6.4c-0.3-1.8,1-3.6,2.9-3.8l21.8-3.1&#10;&#9;&#9;&#9;&#9;c1.8-0.3,3.6,1,3.8,2.9l0.9,6.4C365.8,650.6,364.5,652.3,362.7,652.5z" style="fill: rgb(251, 150, 173);" transform="matrix(1, 0, 0, 1, -129.67742919921875, -439.3548583984375)"/><path class="st3" d="M358.7,652.3l-4.9,0.7c-1.1,0.2-2.1-0.6-2.2-1.7l-0.7-4.9c-0.2-1.1,0.6-2.1,1.7-2.2l4.9-0.7&#10;&#9;&#9;&#9;&#9;c1.1-0.2,2.1,0.6,2.2,1.7l0.7,4.9C360.5,651.1,359.8,652.1,358.7,652.3z" style="fill: rgb(245, 128, 158);" transform="matrix(1, 0, 0, 1, -129.67742919921875, -439.3548583984375)"/><path class="st2" d="M359.9,651.1l-4.9,0.7c-1.1,0.2-2.1-0.6-2.2-1.7l-0.7-4.9c-0.2-1.1,0.6-2.1,1.7-2.2l4.9-0.7&#10;&#9;&#9;&#9;&#9;c1.1-0.2,2.1,0.6,2.2,1.7l0.7,4.9C361.8,649.9,361,650.9,359.9,651.1z" style="fill: rgb(229, 60, 112);" transform="matrix(1, 0, 0, 1, -129.67742919921875, -439.3548583984375)"/><path class="st7" d="M428,590.2l-1.4-0.2c-1.7-0.3-2.9-1.9-2.6-3.6l7.5-49.3c0.3-1.7,1.9-2.9,3.6-2.6l1.4,0.2&#10;&#9;&#9;&#9;c1.7,0.3,2.9,1.9,2.6,3.6l-7.5,49.3C431.3,589.3,429.7,590.4,428,590.2z" style="fill: rgb(255, 255, 255);" transform="matrix(1, 0, 0, 1, -129.67742919921875, -439.3548583984375)"/><path d="M 429.499988 598.700012 A 3.7 3.7 0 0 1 425.799988 602.400012 A 3.7 3.7 0 0 1 422.099988 598.700012 A 3.7 3.7 0 0 1 425.799988 595.000012 A 3.7 3.7 0 0 1 429.499988 598.700012 Z" class="st7" style="fill: rgb(255, 255, 255);" transform="matrix(1, 0, 0, 1, -129.67742919921875, -439.3548583984375)"/></svg>