<?xml version="1.0" encoding="utf-8"?>
<svg id="master-artboard" viewBox="0 0 354.8387145996094 459.3548583984375" version="1.1" xmlns="http://www.w3.org/2000/svg" x="0px" y="0px" style="enable-background:new 0 0 1400 980;" width="354.8387145996094px" height="459.3548583984375px"><rect id="ee-background" x="0" y="0" width="354.8387145996094" height="459.3548583984375" style="fill: white; fill-opacity: 0; pointer-events: none;"/>


<path class="st1" d="M702,554.8h60.6c1.6,0,3-1.2,3.1-2.8c0.1-1.7-1.3-3.1-2.9-3.1H702c-1.4,0-2.5-1.7-1.3-3.2&#10;&#9;&#9;c0.7-0.4,1.4-0.7,2.1-1h59.8c1.6,0,3-1.2,3.1-2.8c0.1-1.7-1.3-3.1-2.9-3.1H707c-1.9,0-2.6-2.5-0.9-3.4c1.6-0.8,3.3-1.3,5.2-1.3h51&#10;&#9;&#9;c1.7,0,2.9-1.7,2.3-3.3c-2.5-6.5-8.8-11.1-16.1-11.1h-49.7c-11.1,0-11.3,9-11.3,20v339.9c0,1.2,1,2.2,2.2,2.2l0,0&#10;&#9;&#9;c1.2,0,2.1-0.9,2.2-2.1c0.9-19.4,8.3-167.6,8.3-167.6c0-9.6,7.7-17.3,17.3-17.3h31c7.4,0,13.7-4.6,16.1-11.1&#10;&#9;&#9;c0.6-1.6-0.6-3.3-2.3-3.3h-51c-1.9,0-3.7-0.5-5.2-1.3c-1.7-0.9-1-3.4,0.9-3.4h55.6c1.6,0,3-1.2,3.1-2.8c0.1-1.7-1.3-3.1-2.9-3.1&#10;&#9;&#9;h-60.8c-0.7-0.7-1.1-1.1-1.9-1.9v-0.5c0-1,0.8-1.8,1.8-1.8h60.6c1.6,0,3-1.2,3.1-2.8c0.1-1.7-1.3-3.1-2.9-3.1H702&#10;&#9;&#9;c-1,0-1.8-0.8-1.8-1.8v-0.5c0-1,0.8-1.8,1.8-1.8h60.6c1.6,0,3-1.2,3.1-2.8c0.1-1.7-1.3-3.1-2.9-3.1H702c-1,0-1.8-0.8-1.8-1.8v-0.5&#10;&#9;&#9;c0-1,0.8-1.8,1.8-1.8h60.6c1.6,0,3-1.2,3.1-2.8c0.1-1.7-1.3-3.1-2.9-3.1H702c-1,0-1.8-0.8-1.8-1.8v-0.5c0-1,0.8-1.8,1.8-1.8h60.6&#10;&#9;&#9;c1.6,0,3-1.2,3.1-2.8c0.1-1.7-1.3-3.1-2.9-3.1H702c-1,0-1.8-0.8-1.8-1.8v-0.5c0-1,0.8-1.8,1.8-1.8h60.6c1.6,0,3-1.2,3.1-2.8&#10;&#9;&#9;c0.1-1.7-1.3-3.1-2.9-3.1H702c-1,0-1.8-0.8-1.8-1.8V617c0-1,0.8-1.8,1.8-1.8h60.8c1.6,0,2.9-1.3,2.9-2.9l0,0c0-1.6-1.3-2.9-2.9-2.9&#10;&#9;&#9;H702c-1,0-1.8-0.8-1.8-1.8V607c0-1,0.8-1.8,1.8-1.8h60.6c1.6,0,3-1.2,3.1-2.8c0.1-1.7-1.3-3.1-2.9-3.1H702c-1,0-1.8-0.8-1.8-1.8&#10;&#9;&#9;v-0.5c0-1,0.8-1.8,1.8-1.8h60.6c1.6,0,3-1.2,3.1-2.8c0.1-1.7-1.3-3.1-2.9-3.1H702c-1,0-1.8-0.8-1.8-1.8v-0.5c0-1,0.8-1.8,1.8-1.8&#10;&#9;&#9;h60.6c1.6,0,3-1.2,3.1-2.8c0.1-1.7-1.3-3.1-2.9-3.1H702c-1,0-1.8-0.8-1.8-1.8v-0.5c0-1,0.8-1.8,1.8-1.8h60.8c1.6,0,2.9-1.3,2.9-2.9&#10;&#9;&#9;l0,0c0-1.6-1.3-2.9-2.9-2.9H702c-1,0-1.8-0.8-1.8-1.8v-0.5c0-1,0.8-1.8,1.8-1.8h60.6c1.6,0,3-1.2,3.1-2.8c0.1-1.7-1.3-3.1-2.9-3.1&#10;&#9;&#9;H702c-1,0-1.8-0.8-1.8-1.8v-0.5C700.2,555.6,701,554.8,702,554.8z" style="fill: rgb(226, 170, 186);" transform="matrix(1, 0, 0, 1, -532.258056640625, -447.0967712402344)"/><path class="st2" d="M684.3,537.1H745c1.6,0,3-1.2,3.1-2.8c0.1-1.7-1.3-3.1-2.9-3.1h-60.8c-1.4,0-2.5-1.7-1.3-3.2&#10;&#9;&#9;c0.7-0.4,1.4-0.7,2.1-1H745c1.6,0,3-1.2,3.1-2.8c0.1-1.7-1.3-3.1-2.9-3.1h-55.8c-1.9,0-2.6-2.5-0.9-3.4c1.6-0.8,3.3-1.3,5.2-1.3h51&#10;&#9;&#9;c1.7,0,2.9-1.7,2.3-3.3c-2.5-6.5-8.8-11.1-16.1-11.1h-49.7c-11.1,0-11.3,9-11.3,20v339.9c0,1.2,1,2.2,2.2,2.2l0,0&#10;&#9;&#9;c1.2,0,2.1-0.9,2.2-2.1c0.9-19.4,8.3-167.6,8.3-167.6c0-9.6,7.7-17.3,17.3-17.3h31c7.4,0,13.7-4.6,16.1-11.1&#10;&#9;&#9;c0.6-1.6-0.6-3.3-2.3-3.3h-51c-1.9,0-3.7-0.5-5.2-1.3c-1.7-0.9-1-3.4,0.9-3.4H745c1.6,0,3-1.2,3.1-2.8c0.1-1.7-1.3-3.1-2.9-3.1&#10;&#9;&#9;h-60.8c-0.7-0.7-1.1-1.1-1.9-1.9v-0.5c0-1,0.8-1.8,1.8-1.8H745c1.6,0,3-1.2,3.1-2.8c0.1-1.7-1.3-3.1-2.9-3.1h-60.8&#10;&#9;&#9;c-1,0-1.8-0.8-1.8-1.8v-0.5c0-1,0.8-1.8,1.8-1.8H745c1.6,0,3-1.2,3.1-2.8c0.1-1.7-1.3-3.1-2.9-3.1h-60.8c-1,0-1.8-0.8-1.8-1.8v-0.5&#10;&#9;&#9;c0-1,0.8-1.8,1.8-1.8H745c1.6,0,3-1.2,3.1-2.8c0.1-1.7-1.3-3.1-2.9-3.1h-60.8c-1,0-1.8-0.8-1.8-1.8v-0.5c0-1,0.8-1.8,1.8-1.8H745&#10;&#9;&#9;c1.6,0,3-1.2,3.1-2.8c0.1-1.7-1.3-3.1-2.9-3.1h-60.8c-1,0-1.8-0.8-1.8-1.8v-0.5c0-1,0.8-1.8,1.8-1.8H745c1.6,0,3-1.2,3.1-2.8&#10;&#9;&#9;c0.1-1.7-1.3-3.1-2.9-3.1h-60.8c-1,0-1.8-0.8-1.8-1.8v-0.5c0-1,0.8-1.8,1.8-1.8h60.8c1.6,0,2.9-1.3,2.9-2.9l0,0&#10;&#9;&#9;c0-1.6-1.3-2.9-2.9-2.9h-60.8c-1,0-1.8-0.8-1.8-1.8v-0.5c0-1,0.8-1.8,1.8-1.8H745c1.6,0,3-1.2,3.1-2.8c0.1-1.7-1.3-3.1-2.9-3.1&#10;&#9;&#9;h-60.8c-1,0-1.8-0.8-1.8-1.8v-0.5c0-1,0.8-1.8,1.8-1.8H745c1.6,0,3-1.2,3.1-2.8c0.1-1.7-1.3-3.1-2.9-3.1h-60.8&#10;&#9;&#9;c-1,0-1.8-0.8-1.8-1.8v-0.5c0-1,0.8-1.8,1.8-1.8H745c1.6,0,3-1.2,3.1-2.8c0.1-1.7-1.3-3.1-2.9-3.1h-60.8c-1,0-1.8-0.8-1.8-1.8v-0.5&#10;&#9;&#9;c0-1,0.8-1.8,1.8-1.8h60.8c1.6,0,2.9-1.3,2.9-2.9l0,0c0-1.6-1.3-2.9-2.9-2.9h-60.8c-1,0-1.8-0.8-1.8-1.8V549c0-1,0.8-1.8,1.8-1.8&#10;&#9;&#9;H745c1.6,0,3-1.2,3.1-2.8c0.1-1.7-1.3-3.1-2.9-3.1h-60.8c-1,0-1.8-0.8-1.8-1.8v-0.5C682.5,537.9,683.3,537.1,684.3,537.1z" style="fill: rgb(229, 60, 112);" transform="matrix(1, 0, 0, 1, -532.258056640625, -447.0967712402344)"/>
</svg>