<svg width='200' height='200' fill="#000000" xmlns="http://www.w3.org/2000/svg" xmlns:xlink="http://www.w3.org/1999/xlink" version="1.1" x="0px" y="0px" viewBox="0 0 84.9 99" style="enable-background:new 0 0 84.9 99;" xml:space="preserve"><path d="M77.1,87.5c1.6-0.7,3.6-1.3,5.6-1.1c1.1,0.1,2.1-0.8,2.2-1.9c0.1-1.1-0.8-2.1-1.9-2.2c-1.5-0.1-2.9,0-4.3,0.4  c1.3-2,2.8-4.6,4.6-7.7c0.1-0.2,0.2-0.4,0.2-0.6c0.2-0.8,4.1-18.6-5-30.7c-3.9-5.3-9.7-8.6-17.1-9.9c0.5-0.7,1-1.5,1.3-2.3  c0.3,0,0.7,0.1,1,0.1c1.1,0.2,2.2-0.5,2.4-1.6c0.2-1.1-0.5-2.2-1.6-2.4c-0.2,0-0.3,0-0.4-0.1c0.2-1,0.3-2,0.3-3.1v-8.2  C64.4,7.2,57.2,0,48.2,0h-12c-8.9,0-16.2,7.2-16.2,16.2v4c-1-0.3-2-0.8-3-1.6c-4.8-3.6-4.9-7.2-4.9-7.4c0-1.1-0.8-2.1-2-2.1  c-1.1,0-2.1,0.8-2.2,2c0,0.2-0.2,5.9,6.5,10.9c1.8,1.4,3.6,2.1,5.4,2.5c0,2.3,0.5,4.6,1.4,6.6c-6.5-1-9.7-4.1-9.8-4.3  c-0.8-0.8-2.1-0.8-2.9-0.1C8,27.4,8,28.7,8.7,29.5c0.2,0.2,3.5,3.6,10.3,5.1c-5.5,1.7-9.9,4.7-13,9c-9.1,12.1-5.2,29.9-5,30.7  c0,0.2,0.1,0.4,0.2,0.6c1.5,2.7,2.8,4.9,3.9,6.7c-1.2-0.2-2.5-0.1-3.8,0.4c-1.1,0.4-1.6,1.5-1.3,2.6c0.4,1.1,1.5,1.6,2.6,1.3  c1.8-0.6,4,0.3,5.8,1.4c-3.6,1.2-8.2,3.9-8.6,9.6C0,98,0.8,98.9,2,99c0,0,0.1,0,0.1,0c1.1,0,2-0.8,2-1.9c0.2-4.3,5.3-5.9,7.8-6.4  c0.3,0.2,0.6,0.2,0.8,0.2c0.3,0,0.5-0.1,0.7-0.1c0.7-0.2,1.4-0.8,1.6-1.9c0-0.1,0.1-0.3,0.1-0.4c0,0,0,0,0-0.1  c0-2.9,5-20.9,9.8-27.8c3.4-4.9,13.1-2.6,16.6-1.3c0.1,0,0.2,0,0.3,0c0.2,0,0.3,0.1,0.5,0.1c0.1,0,0.3,0,0.4-0.1c0.1,0,0.2,0,0.3,0  c0.1,0,12.5-4.4,16.6,1.3c4.8,6.9,9.8,24.9,9.8,27.8c0,1.4,0.9,2.2,1.7,2.4c0.2,0.1,0.5,0.1,0.7,0.1c0.3,0,0.5-0.1,0.9-0.3  c3.5,0.7,7.9,2.3,8.2,4c0.2,1,1.1,1.6,2,1.6c0.1,0,0.3,0,0.4,0c1.1-0.2,1.8-1.3,1.6-2.4C84.2,90.5,80.4,88.6,77.1,87.5z M36.3,4.1  h12c6.6,0,12,5.4,12,12v8.2c0,0.9-0.1,1.8-0.3,2.7c-5.4-0.2-10.1,1.1-13.9,2.9c3.1-5.5,3.9-10.4,2.4-14.7c-2.2-6.1-8.5-9.4-13.3-11  C35.5,4.1,35.9,4.1,36.3,4.1z M58.2,31.1c-2.2,3.2-5.8,5.2-9.9,5.2h-5.3C46.4,34.1,51.7,31.4,58.2,31.1z M24.2,16.2  c0-3.8,1.8-7.2,4.5-9.4c2,0.4,13.3,2.6,15.8,9.8c1,2.8,0.5,6.1-1.2,9.8c0-0.1-0.1-0.3-0.1-0.4c-0.6-1.5-2-3.5-5.7-4.3  c-4.3-0.9-7.6-0.8-10.6-0.8c-1,0-1.8,0-2.7,0V16.2z M21.6,58.2c-4.1,5.8-8.3,18.9-9.9,26c-1.9-2.8-4.5-7.1-6.8-11.1  c-0.4-2.2-3-17.2,4.4-27c3.4-4.5,8.4-7.3,14.9-8.4c-1.1,2.2-2.1,5.2-1.8,8.6c0.3,3,1.7,5.8,4.1,8.2C24.6,55.2,22.9,56.3,21.6,58.2z   M31.6,53.5c-3.1-2.3-4.8-4.9-5.1-7.7c-0.3-2.9,0.9-5.6,1.9-7.3c1.9,1.1,4.1,1.8,6.5,2c-0.7,4.2-1.4,9.2,0.2,13.2  C34,53.5,32.8,53.5,31.6,53.5z M24.2,24.9c0.9,0,1.7,0,2.7,0c2.8,0,5.9,0,9.8,0.7c2.2,0.4,2.5,1.4,2.7,1.7c0.8,2.3-1.6,6.6-3.3,9.1  C29.7,36.3,24.5,31.2,24.2,24.9z M52.9,53.5c-4.5-0.2-8.9,1.1-10.6,1.6c-0.4-0.1-0.8-0.3-1.4-0.4c-4.1-2.9-2.8-9.4-1.8-14.2h9.2  c2.8,0,5.5-0.7,7.8-2c1,1.7,2.2,4.4,1.9,7.3C57.7,48.6,55.9,51.2,52.9,53.5z M62.9,58.2c-1.3-1.9-3-3-4.9-3.7  c2.4-2.5,3.8-5.2,4.1-8.2c0.4-3.3-0.6-6.4-1.8-8.6c6.5,1.2,11.6,4,14.9,8.4c7.4,9.8,4.8,24.8,4.4,27.1c-2.3,4-4.9,8.3-6.8,11.1  C71.2,77.1,67,64,62.9,58.2z"></path></svg>