<svg width='200' height='200' fill="#000000" xmlns="http://www.w3.org/2000/svg" xmlns:xlink="http://www.w3.org/1999/xlink" version="1.1" x="0px" y="0px" viewBox="0 0 100 100" style="enable-background:new 0 0 100 100;" xml:space="preserve"><path d="M78.9177475,62.4094467c-0.0498047-0.0146484-4.9672852-1.512207-4.6694336-6.4077148  c0.078125-1.2851563,0.7666016-2.3925781,1.5634689-3.675293c1.2294998-1.9780273,2.7597733-4.4404297,2.2832108-8.4130859  c-0.6787109-5.6469727-3.2973633-7.581543-5.8295898-9.4521484c-1.6450195-1.2148438-3.1982422-2.3623047-4.3686523-4.5122089  c-0.980957-1.8081055-1.3588867-3.984375-1.7236328-6.0888672c-0.7797852-4.4936523-1.5859375-9.1396484-8.110836-10.6298828  c-6.9754028-1.5892334-9.2653809,3.2113647-9.9827271,5.8113403c-14.4283447,0.383606-16.5402832,13.1680317-16.5001831,20.8136616  l0.019165,0.9112549c-0.0013428,0.0134277-0.0084839,0.0247803-0.0089111,0.0384521  c-0.0092773,0.2714844-0.0136719,0.6313477,0.0341797,1.0058594c0.0006714,0.0050659,0.0037231,0.008606,0.0044556,0.0136108  c0.0016479,0.0112915,0.0012817,0.020752,0.0033569,0.0322876c0.355957,8.7475586,2.6425781,16.0664063,2.6655273,16.1396484  c0.0883789,0.2788086,0.3671875,0.4511719,0.6552734,0.4130859c0.2900391-0.0405273,0.5083008-0.284668,0.5166016-0.5776367  c0.0013428-0.041626,0.1238403-3.8156738,1.2865601-9.0899048c1.6848145,3.8323364,4.3057861,7.225647,7.2566528,9.3694458  c0.003418,0.2418823,0.0073242,0.4827271,0.0081787,0.7402954c0.0012207,0.3574829-0.0013428,0.7290039-0.0113525,1.1115112  c-0.0629883,3.1547852-2.6591797,5.7958984-5.9101563,6.0131836l-9.7099609,0.6586914  c-0.0097656,0-0.0200195,0.0004883-0.0302734,0.0009766c-0.2202148,0.0112305-0.4526367,0.0351563-0.6328125,0.074707  c-0.0090942,0.0012817-0.0175171,0.0043945-0.0266113,0.0056763c-0.0043945,0.0009155-0.0090332,0.0007324-0.0134277,0.0016479  c-0.0026855,0.0005493-0.0048218,0.0022583-0.0075073,0.0028687c-2.9729614,0.4360962-5.3607178,2.506958-6.0896606,5.2925415  c-1.2700195,4.8491211-1.0195313,10.5820313-0.5854492,14.5371094c0.0332031,0.3041992,0.2900391,0.534668,0.5961914,0.534668  h54.2998009c0.3061523,0,0.5629883-0.2304688,0.5961914-0.534668c0.434082-3.9550781,0.6845703-9.6879883-0.5854492-14.5371094  c-0.7329102-2.8007813-3.1416016-4.8823242-6.097168-5.2954102c-0.2202148-0.046875-0.4526367-0.0708008-0.6728516-0.0820313  c-0.0102539-0.0004883-0.0205078-0.0009766-0.0302734-0.0009766l-9.7104454-0.6586914  c-3.2504883-0.2172852-5.8466797-2.8583984-5.9101563-6.0166016c-0.0097656-0.3807983-0.012207-0.7514648-0.0109253-1.1085205  c0.0009155-0.2543335,0.0046997-0.4923096,0.0081177-0.7316284c1.3700562-0.9972534,2.7173462-2.3103638,3.9159546-3.8187866  c0.0037842,3.7766724,1.0361328,6.7354126,3.0971069,8.7980957c2.8012695,2.8027344,6.6640587,3.1445313,8.3808556,3.1445313  c0.4238281,0,0.7167969-0.0209961,0.8305664-0.0307617c0.3203125-0.0273438,0.5751953-0.3012695,0.5615234-0.6225586  s-0.2646484-0.5737305-0.5859375-0.5737305c-0.0371094-0.0058594-0.9477539-0.1782227-3.9321289-3.3144531  c-0.7493896-0.7888184-1.2144165-1.7218018-1.4516602-2.9398193c2.7044678,4.3302612,7.2976074,5.2313232,10.6137695,5.2313232  c2.2700195,0,3.9389648-0.4160156,3.9838867-0.4277344c0.2612305-0.0678711,0.4448242-0.3017578,0.4492188-0.5712891  C79.3532944,62.7243881,79.1770248,62.4851303,78.9177475,62.4094467z M69.7725449,67.9347153  c2.4349976,0.4058838,4.380249,2.1043701,4.9762573,4.3824463c1.168457,4.4604492,0.9960938,9.7441406,0.6103516,13.5678711  h-8.7719727V81.538353c0-0.331543-0.2685547-0.6000977-0.6000977-0.6000977s-0.6000977,0.2685547-0.6000977,0.6000977v4.3466797  H32.111599V81.538353c0-0.331543-0.2685547-0.6000977-0.6000977-0.6000977s-0.6000977,0.2685547-0.6000977,0.6000977v4.3466797  H22.139431c-0.3857422-3.8237305-0.5581055-9.1074219,0.6103516-13.5678711  c0.5930786-2.2668457,2.5229492-3.958252,4.9778442-4.3816528c5.0805054,2.6504517,12.7203979,4.1697388,21.0216675,4.1697388  C57.0513573,72.1052475,64.6921005,70.5855331,69.7725449,67.9347153z M59.3186302,67.1736069l8.0897789,0.5488281  c-4.8398399,2.0361328-11.4873009,3.1826172-18.6591148,3.1826172c-7.171875,0-13.8192749-1.1464844-18.6591187-3.1826172  l8.0892944-0.5488281c3.8662109-0.2583008,6.9541016-3.4145508,7.0292969-7.1826172  c0.0097656-0.3671875,0.0126953-0.7250977,0.0117188-1.0708008c0.02771,0.0161743,0.0540161,0.0268555,0.081604,0.0426636  c0.281311,0.1613159,0.559021,0.3080444,0.8312988,0.4345093c0.039917,0.0184937,0.0785522,0.0335083,0.1182251,0.0512695  c0.2507935,0.1123657,0.4968872,0.2089844,0.7381592,0.2907104c0.043335,0.0146484,0.0874023,0.0319214,0.1304321,0.0455933  c0.2573242,0.0818481,0.5075684,0.1437378,0.7518921,0.1894531c0.0523682,0.0098267,0.1036377,0.0172729,0.1553955,0.0253906  c0.2475586,0.0389404,0.4902344,0.0654297,0.7218018,0.0654297s0.4742432-0.0265503,0.7218018-0.0654297  c0.0517578-0.0081177,0.1030273-0.015564,0.1553955-0.0253906c0.2443848-0.0457764,0.4946289-0.107605,0.7519531-0.1894531  c0.0429077-0.0136719,0.086792-0.0308228,0.1300659-0.0454712c0.2419434-0.0819092,0.4885254-0.178772,0.7399292-0.2913818  c0.0389404-0.0174561,0.0769043-0.0321045,0.1160278-0.050293c0.2728882-0.126709,0.5512085-0.2738037,0.8331299-0.4355469  c0.0272217-0.015625,0.0532227-0.026123,0.0805054-0.0420532c-0.0009766,0.3452148,0.0019531,0.7021484,0.0112305,1.0673828  C52.3650169,63.7590561,55.4529076,66.9153061,59.3186302,67.1736069z M57.8791771,49.3747787c0,0.0004883,0,0.0004883,0,0.0009766  c-0.0936279,0.5042114-0.1721802,0.9949341-0.2376709,1.4718628c-0.0211182,0.1541138-0.0324707,0.2964478-0.0505981,0.4470825  c-0.034668,0.288147-0.0733643,0.5809326-0.0969849,0.855957c-1.4233398,2.1040039-3.1757813,3.9370117-4.9482422,5.1728516  c-1.421875,0.9941406-2.7705078,1.5415039-3.7963867,1.5415039c-0.2564697,0-0.5331421-0.0342407-0.8260498-0.1010742  c-0.8787842-0.2005615-1.9040527-0.6949463-2.9708252-1.440918c-3.2714233-2.2807007-6.1460571-6.2352295-7.7153931-10.6039429  c0.0361938-0.1366577,0.0759277-0.2620239,0.1144409-0.3911133c0.0440674-0.1477051,0.0862427-0.3014526,0.1333008-0.4395752  c0.0485229-0.1425171,0.1021118-0.2698364,0.1538086-0.4024658c0.0489502-0.1254272,0.0957642-0.256958,0.147522-0.3738403  c0.0563354-0.1271973,0.1177368-0.2398682,0.1774292-0.3573608c0.0532227-0.1048584,0.1043701-0.2158203,0.1602783-0.3132324  c0.0646973-0.1126709,0.1346436-0.2113647,0.2029419-0.3143921c0.0568237-0.0857544,0.1113281-0.1776733,0.1705322-0.257019  c0.0755005-0.1010742,0.1564331-0.1887817,0.2359619-0.2799072c0.0576782-0.0661621,0.112854-0.1384277,0.1726685-0.1995239  c0.0876465-0.0895996,0.1809692-0.1663208,0.2730713-0.2456665c0.0576172-0.0496216,0.1124878-0.1049805,0.171814-0.1507568  c0.1028442-0.0792847,0.2116089-0.1464233,0.3197632-0.2147827c0.0537109-0.0339355,0.1047363-0.0733643,0.159729-0.1047363  c0.1229858-0.0701904,0.2520142-0.1290894,0.3814697-0.1871338c0.0449829-0.0202026,0.0875854-0.0450439,0.1333618-0.0638428  c0.1494751-0.0614014,0.3048706-0.1125488,0.4626465-0.1602783c0.02948-0.0089722,0.0570679-0.020874,0.086853-0.0293579  c0.1864624-0.0530396,0.3786621-0.09729,0.576416-0.1340942c0.0026245-0.0004883,0.0050659-0.0012207,0.0076294-0.001709  c1.2145996-0.2246704,2.6418457-0.1670532,4.2769775-0.1009521c0.5629883,0.0224609,1.1411133,0.0458984,1.7329102,0.0576172  c1.5649414,0.0317383,2.7856445-0.4482422,3.7011719-1.4130859c1.3916016-1.4648438,1.6069336-3.6494141,1.6269531-4.6616211  c0.7744141-0.0864258,2.3857422-0.0859375,3.6733398,1.1147461c0.5129395,0.4781494,0.9276733,1.1021729,1.2434082,1.8648682  c0.4735718,1.144104,0.7243042,2.6002808,0.7495117,4.3442993C58.5081444,45.0480576,58.307827,47.0796127,57.8791771,49.3747787z   M64.8845444,62.5285873c0.7807617,0.8208008,1.6870117,1.7177734,2.5322266,2.421875  c-1.7509766-0.2041016-4.2084923-0.8388672-6.0683556-2.7001953c-2.1508789-2.1523438-3.0498047-5.4638672-2.6708984-9.8481445  c0.0678711-0.8662109,0.1962891-1.8105469,0.3813477-2.8066406c1.2397461-6.6386719,0.6508789-11.1401367-1.7504883-13.378418  c-0.1526489-0.142334-0.3088379-0.2689209-0.4666748-0.3861084c-0.0501099-0.0371704-0.1008301-0.0684204-0.1513062-0.1032104  c-0.1091309-0.0752563-0.2183228-0.1480713-0.3286743-0.2127075c-0.059082-0.0346069-0.118042-0.0653076-0.1772461-0.0970459  c-0.1038208-0.055542-0.2073364-0.1080933-0.3112793-0.1552734c-0.0601807-0.0272827-0.119751-0.0532837-0.1798096-0.0779419  c-0.1052856-0.0432739-0.2098389-0.0822144-0.31427-0.1177979c-0.0557861-0.0189819-0.1112671-0.0387573-0.166748-0.0557251  c-0.1144409-0.0350342-0.2271729-0.0646362-0.3394165-0.0915527c-0.0427856-0.0102539-0.0858765-0.022644-0.1281738-0.0317993  c-0.312561-0.067688-0.612854-0.1068726-0.8931885-0.1255493c-0.0275269-0.0018311-0.0529785-0.0020752-0.0801392-0.00354  c-0.1113892-0.0059814-0.2194824-0.0099487-0.3232422-0.010437c-0.0105591-0.000061-0.0224609-0.0010376-0.0328979-0.0010376  c-0.0160522,0-0.0283203,0.0016479-0.0441284,0.00177c-0.3577271,0.0025635-0.6608276,0.0317993-0.8864746,0.0650024  c-0.0113525,0.0016479-0.0215454,0.0029907-0.0324707,0.0046387c-0.1099854,0.0167847-0.1978149,0.0327148-0.2635498,0.0464478  c-0.008728,0.00177-0.0106201,0.0022583-0.0185547,0.0039673c-0.0576782,0.0123901-0.1008301,0.022583-0.1122437,0.0256348  c-0.2783203,0.0727539-0.4663086,0.3339844-0.4472656,0.6210938c0.0019531,0.0273438,0.1655273,2.7709961-1.2944336,4.3032227  c-0.6743164,0.7084961-1.6044922,1.0834961-2.8051758,1.0356445c-0.5825195-0.0112305-1.1523438-0.0341797-1.7070313-0.0566406  c-4.4160156-0.1762695-8.2314453-0.331543-9.7763672,5.7900391c-0.0039063,0.0151367-0.0073242,0.0317383-0.0097656,0.0483398  c-0.7724609,3.0644531-1.2055664,5.7285156-1.4472656,7.6855469c-0.6791992-2.9243164-1.5400391-7.5-1.7416992-12.5610352  c-0.0014648-0.0332031-0.0053711-0.065918-0.012207-0.0986328c0.0004883-0.0019531,0-0.0092773-0.0004883-0.0234375  l-0.0366211-1.7866211c-0.0385742-7.284668,1.9599609-19.5214863,15.8671875-19.6352558  c0.0322266-0.0039063,0.0668945-0.0019531,0.1025391-0.0019531c4.6616211,0,8.831543,1.7231445,11.7426758,4.8520508  c3.1870117,3.4257813,4.648922,8.3100605,4.2280235,14.1328144c-0.0195313,0.3334961-0.0488281,0.6572266-0.0786133,0.9980469  c-0.0686646,0.8793945-0.1472778,1.7269897-0.2347412,2.5421753c-0.0014038,0.0131836-0.0026245,0.0272217-0.0040283,0.0403442  c-0.000061,0.0006714,0.0001831,0.0012207,0.0001221,0.0018921c-0.000061,0.0004883-0.000061,0.0010376-0.0001221,0.0015259  c-0.2475586,2.418457-0.5346642,4.5722656-0.7875938,6.4726563c-0.3276367,2.4604492-0.6103516,4.5849609-0.6850586,6.3833008  C62.7917747,58.8806381,63.3757591,60.9406967,64.8845444,62.5285873z M64.1358261,55.5886459  c0.0120239-0.2636719,0.0337524-0.5452271,0.0543213-0.8247681c0.0122681-0.1660767,0.019043-0.3217163,0.0340576-0.4932861  c0.0274658-0.3145752,0.0643311-0.6506958,0.0999146-0.9837646c0.0184937-0.1730957,0.0325317-0.3353882,0.0529175-0.5134888  c0.0397949-0.3477783,0.086792-0.7173462,0.1326904-1.0839233c0.0229492-0.1829834,0.0424805-0.3547363,0.0666504-0.5423584  c0.0718384-0.557312,0.1484985-1.1339722,0.2280884-1.7317505c0.2524414-1.8946533,0.5379028-4.0412598,0.7856445-6.4517822  c0.1290283-0.3494873,0.222229-0.7093506,0.2739258-1.0999756c0-0.0004883,0.0004883-0.0009766,0.0004883-0.0014648  c0.072937-0.5644531,0.0594482-1.1052246-0.0239258-1.6161499c0.0289917-0.3216553,0.0579834-0.6437988,0.0771484-0.9673462  c0.4448242-6.1557617-1.1274414-11.352541-4.5473595-15.0288105c-0.3852539-0.4141235-0.7918091-0.8040161-1.2159424-1.171875  c-0.1382446-0.1199341-0.2891846-0.2231445-0.4313965-0.3380127c-0.2937622-0.2373657-0.5858765-0.4768677-0.8956299-0.692627  c-0.1814575-0.1264038-0.3751831-0.234375-0.5618896-0.3532104c-0.286377-0.182312-0.5697632-0.3687744-0.867981-0.5331421  c-0.208313-0.1147461-0.4271851-0.2113037-0.6409302-0.3171997c-0.291626-0.1445313-0.5805664-0.2929688-0.881897-0.4207764  c-0.2299805-0.0975342-0.4689941-0.1772461-0.7042847-0.2648926c-0.298645-0.1112061-0.5951538-0.225769-0.9019165-0.3208618  c-0.2484131-0.0770264-0.5042725-0.1370239-0.7576904-0.2033691c-0.3062134-0.0801392-0.6109009-0.1626587-0.9239502-0.2269287  c-0.263916-0.0541992-0.5335693-0.0924072-0.802002-0.1352539c-0.3133545-0.0499878-0.6257324-0.1011353-0.9448242-0.135498  c-0.27771-0.0299072-0.5597534-0.0447998-0.8414917-0.0627441c-0.2227783-0.0141602-0.4406738-0.0431519-0.6657715-0.0496826  c0.7924805-2.5683594,2.8979492-5.890625,8.4628906-4.6235352c5.7456055,1.3120117,6.4174767,5.1831055,7.1948204,9.6650391  c0.3818359,2.199707,0.7763672,4.4746094,1.8520508,6.456543c1.2978516,2.3842793,3.0322266,3.6660175,4.7099609,4.9047871  c2.4345703,1.7983398,4.7338867,3.4970703,5.3510742,8.6298828c0.4262695,3.5541992-0.8632813,5.6298828-2.1108398,7.6367188  c-0.8461914,1.3618164-1.6455078,2.6479492-1.7426758,4.2353516c-0.2246094,3.7006836,2.0317383,5.769043,3.7304688,6.7919922  C73.4577255,63.1002426,66.5591049,62.9355698,64.1358261,55.5886459z"></path></svg>